<?xml version="1.0" standalone="no"?>
<!DOCTYPE svg PUBLIC "-//W3C//DTD SVG 1.1//EN" "http://www.w3.org/Graphics/SVG/1.1/DTD/svg11.dtd" >
<svg xmlns="http://www.w3.org/2000/svg">
<metadata></metadata>
<defs>
<font id="star_trek_enterprise_futureIt" horiz-adv-x="804" >
<font-face units-per-em="2048" ascent="1638" descent="-410" />
<missing-glyph horiz-adv-x="1024" />
<glyph horiz-adv-x="0" />
<glyph unicode="&#xd;" horiz-adv-x="1024" />
<glyph unicode=" "  horiz-adv-x="1024" />
<glyph unicode="&#x09;" horiz-adv-x="1024" />
<glyph unicode="&#xa0;" horiz-adv-x="1024" />
<glyph unicode="!" horiz-adv-x="528" d="M25 -20l24 194h205q0 -4 -1 -6t-1 -4l98 -98q-4 -20 -7 -48t-7 -51q-4 -16 -6 -39.5t-6 -42.5l-191 -2l-96 97h-12zM47 0l162 2q6 43 12 80t10 72h-163zM84 410l125 890h199q-2 -4 -2 -10l98 -98q-4 -25 -9.5 -56.5t-12.5 -85t-17 -134t-25 -203.5q-10 -74 -18 -133.5 t-14 -110.5q-4 -39 -11.5 -80t-11.5 -76h-192l-97 97h-12zM106 430h164q6 41 11.5 82t11.5 87t13.5 99t17.5 119q14 123 24 202t17.5 129t11.5 78.5t8 53.5h-158z" />
<glyph unicode="&#x22;" horiz-adv-x="737" d="M43 752l55 397l6 37q2 8 2 16t3 17v-2q2 14 4 40.5t6 42.5h203q0 -4 -1.5 -5t-1.5 -5l68 -69q6 33 11 49t10 30h190q0 -4 -1 -6t-1 -4l98 -98q-8 -53 -14 -101.5t-10 -76.5q0 -4 -1 -6t-1 -7l-50 -346h-188l-76 76q-4 -20 -6 -38.5t-4 -37.5h-192l-97 97h-12zM66 772h163 q27 188 43.5 313t26.5 195h-162q-6 -43 -10 -73.5t-8 -59.5v2zM344 772h160l47 334q4 31 10 73t14 101h-153q-4 -12 -8 -33.5t-12.5 -74t-21.5 -146.5t-36 -254z" />
<glyph unicode="#" horiz-adv-x="1044" d="M31 332l26 198l156 2q4 35 8 67t8 65h-28l-97 96h-12l29 201h153q6 37 10.5 73.5t10.5 75.5q6 47 13 96t14 94h198q0 -4 -1 -6t-1 -6l76 -78q4 23 7 45.5t7 44.5h199q0 -4 -1 -6t-1 -6l98 -96q-8 -59 -15 -117.5t-16 -116.5l48 -2v-12l96 -96q-4 -57 -11.5 -102.5 t-11.5 -81.5h-75q-16 0 -34 1t-40 -1h-10q-6 -33 -10.5 -66t-8.5 -66h45l-2 -12l98 -96l-26 -191h-41q-6 0 -13.5 1.5t-19.5 1.5h-84q-12 -86 -24.5 -175.5t-24.5 -175.5l-191 -2l-86 86q-4 -23 -5 -42t-5 -42l-190 -2l-96 97h-13l33 256h-31l-96 96h-12zM53 352h156 l-49 -352l162 2q25 178 49 350h125l-50 -352l162 2q25 178 49 350h97q23 0 32 -1t29 -1l23 162h-158l19.5 136.5t19.5 131.5h22q45 2 74 0t64 0l20 158l-160 2q12 86 23.5 170t21.5 170h-157l-49 -340h-125q12 86 23 170t22 170h-158l-49 -340h-152v-2l-24 -158h153 l-37 -268l-155 -2zM393 512l19.5 136.5t19.5 131.5h123l-37 -268h-125zM899 938l14 -2v2h-14z" />
<glyph unicode="$" horiz-adv-x="792" d="M43 184q2 20 4 42t6 44q4 23 6 47.5t7 47.5l53 22l-33 33q-4 -2 -6 -2t-6 -2l100 684q6 72 41 123t76 75h51q4 16 5 33t5 35q4 23 7 48.5t8 45.5h202q-2 -4 -2 -12l97 -96q-4 -16 -7.5 -39t-7.5 -41q-2 -4 -2 -8t-2 -9l66 -63q35 -41 43 -88t2 -100l-29 -154l-39 -19 l35 -32l-96 -725q-23 -82 -68 -128t-108 -61q-4 -18 -5.5 -39.5t-5.5 -40.5q-4 -20 -6 -45.5t-6 -46.5h-186l-97 97h-12l17 129l-39 38h-9q-41 43 -55 101.5t-4 105.5zM63 178q-12 -41 1.5 -93t46.5 -87h67l-22 -168h157q6 43 11.5 86t11.5 84q61 12 107 57t67 125l92 697 l-303 -138l51 367h131l-30 -221l161 74l27 147q6 51 -1 94t-36 78l-86 -2q10 66 16.5 99.5t10.5 62.5h-158l-25 -162h-61q-37 -23 -68.5 -69t-35.5 -111l-95 -649l308 133l-58 -400h-129l33 244l-168 -74zM332 389l24 -27q2 10 3 19.5t3 19.5q-8 -4 -15 -7t-15 -5zM440 825 q4 2 9.5 4t9.5 5l-15 16q-2 -6 -2 -12.5t-2 -12.5z" />
<glyph unicode="%" horiz-adv-x="1368" d="M37 752q0 16 1 30.5t3 30.5v18.5t4 18.5l31 291q4 4 4 14q0 2 1 4t1 4q2 16 6 37t13.5 41.5t22.5 37.5t36 28h315q33 0 49.5 -12.5t24.5 -32.5l84 -82q23 -23 21.5 -60t-5.5 -73q0 -4 -1 -9.5t-1 -9.5l-24 -180l211 457l202 2l-6 -13l98 -96q-6 -16 -20 -46t-27 -54 q-23 -47 -64.5 -137.5t-107.5 -247.5q-12 -27 -23.5 -50.5t-21.5 -46.5h281q57 0 74 -45l84 -82q23 -23 21.5 -59.5t-5.5 -73.5q0 -4 -1 -9t-1 -9l-47 -369q-4 -45 -21.5 -66.5t-62.5 -21.5h-316q-25 0 -39 15l-86 84q-23 8 -30.5 29.5t-7.5 51.5q0 16 1 30.5t3 31.5v18.5 t4 18.5l16 166q-37 -80 -86 -184.5t-115 -252.5l-192 -2l-96 97h-17l271 587h-295q-25 0 -39 15l-86 84q-23 6 -31 28.5t-8 53.5zM59 726q2 -38 39 -38h316q37 0 51 18.5t18 57.5l47 369q2 23 5.5 49t0 49.5t-16.5 39t-44 15.5h-311q-25 -10 -36 -33.5t-17.5 -49t-8.5 -46 t-6 -24.5l-35 -322q-4 -47 -2 -85zM61 811v8l2 23q-2 -10 -2 -31zM227 842l35 291h109l-41 -291h-103zM258 4l162 2q47 104 83 181t64.5 139.5t53 115t50 108.5t55.5 120.5t69 150.5q53 125 88 204t58.5 129t37.5 79t25 53l-158 -2zM729 36q2 -38 39 -38h315q37 0 51.5 18.5 t18.5 57.5l47 368q2 23 5 49.5t0 50t-16 39t-44 15.5h-311q-25 -10 -36.5 -33.5t-17.5 -49.5t-8 -46.5t-6 -24.5l-35 -321q-4 -47 -2 -85zM731 121v8l2 23q-2 -10 -2 -31zM897 152l35 290h108l-41 -290h-102z" />
<glyph unicode="&#x26;" horiz-adv-x="1060" d="M45.5 117q-6.5 39 5.5 69v-2q6 41 12.5 81t12.5 81t12 81t12 81q2 16 4 34.5t5 32.5q4 37 10 68q8 8 28.5 22.5t45 30t51 30.5t49.5 28v10q-2 4 -2 6q-6 6 -12 18l-3 13v-2l-6 12q-31 63 -57.5 131t-26.5 135q0 43 13.5 87t46.5 85q20 20 33.5 30.5t23.5 18.5l320 2 q6 -8 11 -15t9 -15l2 -2l78 -76q35 -41 43 -88t2 -100l-39 -279h2q-6 -41 -14 -84t-15 -84l-28 2v-18t-2 -2q-2 -2 -4 -3t-4 -4l8 -18q4 -8 9 -18.5t11 -22.5l21 -45q25 14 51.5 28.5t54.5 30.5q29 16 64 35t57 31v-16l96 -97v-188q-39 -23 -76.5 -45.5t-66.5 -38.5 q-14 -8 -23.5 -14.5t-23.5 -14.5v-4q29 -59 61.5 -130t59.5 -130l-191 2l-96 96h-10l-25 50q-10 -6 -18.5 -12.5t-18.5 -12.5q-61 -98 -170 -117l-30 4l-5 -4h-184l-96 96h-8q-33 33 -43 60q-20 41 -26.5 80zM68 116.5q6 -36.5 22 -71.5q12 -27 33 -47h172v-2l2 2q0 2 4 6 v-6h35q49 8 90 36t70 77q27 16 50 30.5t46 26.5q2 -2 4 -2t6 -2q16 -37 36.5 -80t43.5 -90l162 -2l-115 246v12q41 25 87 51.5t104 60.5v158l-256 -139l-86 188q-8 16 -15.5 28.5t-13.5 23.5l6 -7l-6 17h-6q-4 0 -4 4q-2 2 -2 4l2 2q10 4 28.5 14.5t18.5 8.5h4l24 165l-2 -8 l39 287q6 51 -1 94t-36 78l-303 -2q-23 -14 -49 -41q-39 -51 -49 -105.5t-1 -107.5t31.5 -105.5t47.5 -101.5q2 -4 4 -9t4 -9l12 -25q0 -2 4 -6l-4 -27l11 4q-18 -10 -49 -27.5t-61 -33.5t-51.5 -29.5t-21.5 -15.5l-18 -133l-49 -324q-10 -29 -4 -65.5zM233 182l46 342 l129 60q0 -4 4 -9l-58 -374l-12 -6q-8 -4 -20 -13h-89zM295 -4v-2v2zM352 1042l10 66h132l-43 -283l-97 211v4zM494 109l2 2v2q-2 -2 -2 -4z" />
<glyph unicode="'" horiz-adv-x="440" d="M35 756l76 544h198q-2 -4 -2 -10l99 -98q-4 -25 -9.5 -56.5t-12.5 -85t-17.5 -134t-24.5 -203.5v-2q-4 -16 -4 -21q-2 -4 -2 -13v-18h-193l-96 97h-12zM57 776h162q2 10 3 20.5t3 20.5q14 123 24.5 202t17.5 129t11.5 78.5t8.5 53.5h-158z" />
<glyph unicode="(" horiz-adv-x="702" d="M27 477q0 172 45 323.5t120.5 264.5t177 176.5t214.5 58.5q0 -4 -1 -5t-1 -5l98 -98q-2 -12 -4 -33.5t-6 -38.5q-4 -25 -10.5 -65.5t-14.5 -91.5q-139 12 -227 -147t-88 -476q0 -100 14 -194.5t38 -174.5t52.5 -143.5t57.5 -103.5q-4 -20 -6.5 -42t-4.5 -40 q-4 -29 -6 -49.5t-4 -38.5q-53 0 -109 55l-73 74q-51 39 -98.5 115.5t-84 181t-58 231.5t-21.5 266zM47 477q0 -162 27.5 -308t71.5 -257t99.5 -176.5t110.5 -65.5q4 39 9.5 76t9.5 76q-29 41 -57.5 105.5t-51 144.5t-38 174t-15.5 196q0 162 23.5 285t65.5 203t100.5 118.5 t127.5 32.5q12 84 19.5 125t11.5 74q-104 4 -197.5 -58.5t-164 -171t-111.5 -257t-41 -316.5z" />
<glyph unicode=")" horiz-adv-x="679" d="M40 -352q1 10 2 32.5t4 48t3 38.5q0 4 1 11t1 11v21q0 6 1 13t1 11q35 41 76 104.5t79 142.5t70 171t50 194q27 152 26 271q0 154 -47 241q-37 12 -74 11l-96 96h-12q2 86 3 146.5t3 93.5q92 2 167 -38t130 -114l61 -59q80 -78 124 -207t44 -293q0 -53 -5 -109.5 t-15 -113.5q-31 -160 -89.5 -307.5t-126 -261t-139 -180t-130.5 -64.5l-97 96h-12q-4 -16 -3 -6zM66 -326q55 -2 122.5 62.5t131 175.5t118 256t82.5 307q31 168 16.5 316.5t-65.5 259t-133 173t-186 60.5q-2 -33 -3.5 -74t-3.5 -125q141 8 200.5 -154.5t2.5 -488.5 q-18 -102 -50 -195t-70 -173t-78.5 -143.5t-75.5 -104.5q-2 -39 -3 -76t-5 -76z" />
<glyph unicode="*" horiz-adv-x="872" d="M29 803l190 139q-14 10 -26.5 20.5t-22.5 20.5l-61 61q-14 10 -26.5 20.5t-23.5 20.5l103 170q8 -10 16 -17t17 -13q18 -16 42.5 -38t73.5 -63q4 25 8.5 48.5t8.5 50.5q4 16 5 36.5t5 36.5h199q0 -4 -1 -5t-1 -5l65 -69q4 2 8 6l144 -148q-4 -4 -4 -2l96 -98 q-27 -14 -39 -23q-25 -16 -57.5 -38.5t-88.5 -63.5l11 -6q12 -10 25.5 -21.5t23.5 -19.5l-4 -6l98 -97l-98 -159l-152 123q-6 -47 -13 -92.5t-11 -79.5h-191l-74 71l-2 -2l-26 27h-6v4l-66 65l-4 -2zM59 801l113 -117q25 18 52.5 38.5t60.5 43.5l-23 -158h162q4 39 10 84 t15 101l159 -129l84 137q-35 29 -74 59.5t-88 71.5q-4 2 -6 4t-6 4q43 33 75 55.5t54.5 38t38.5 26.5t31 21l-111 115l-117 -84q10 66 15.5 100.5t9.5 63.5h-158l-26 -189q-35 29 -60.5 49.5t-44 37t-32 27.5t-25.5 22l-82 -136l174 -141z" />
<glyph unicode="+" horiz-adv-x="933" d="M18 586l29 198l281 2q4 33 10 71t12 73t11.5 72.5t9.5 70.5h202q-2 -4 -2 -10l99 -98q-6 -37 -12.5 -81t-10.5 -79q-4 -16 -4 -21h27q37 -2 75.5 -2h73.5l-2 -12l98 -96l-26 -185h-285q-12 -72 -22.5 -141t-20.5 -145h-190l-97 96h-12l27 190h-162l-96 97h-13zM41 606 h285l-41 -287h161q10 78 20.5 144.5l22.5 142.5q84 2 147.5 1t137.5 -1l23 156q0 2 -1 2t-1 2h-283q10 72 19.5 143.5t19.5 143.5h-162l-41 -287l-282 -2z" />
<glyph unicode="," horiz-adv-x="391" d="M27 -20l24 194h205q0 -2 -1 -4t-1 -6l98 -98q-2 -10 -4 -29t-4 -33q-6 -68 -39 -287l-108 -2l-97 97h-12l14 104l-63 64h-12zM49 0h84l-22 -168l79 2q12 82 18.5 135.5t11.5 89t7 57t4 38.5h-161z" />
<glyph unicode="-" horiz-adv-x="765" d="M45 430l23 162l-7 4v35h400q39 0 81 1t83 1l-2 -12l98 -97l-27 -188l-540 -2l-97 96h-12zM68 451l512 2l22 159h-141.5h-126t-127 -1t-139.5 -1l24 2z" />
<glyph unicode="." horiz-adv-x="401" d="M37 -20l24 194h205q0 -4 -1 -6t-1 -4l98 -98q-4 -20 -7 -48t-7 -51q-4 -16 -6 -39.5t-6 -42.5l-191 -2l-96 97h-12zM59 0l162 2q6 43 12.5 80t10.5 72h-164z" />
<glyph unicode="/" horiz-adv-x="923" d="M10 -16l608 1321l203 2l-6 -13l98 -96q-6 -16 -20 -46t-27 -54q-23 -47 -64.5 -137.5t-107.5 -247.5q-53 -121 -91 -201t-73 -156q-39 -84 -91 -194.5t-124 -272.5l-192 -2l-96 97h-17zM43 4l162 2q47 104 83 181t64.5 139.5t53 115t50 108.5t55.5 120.5t69 150.5 q53 125 87.5 204t58.5 129t38 79t24 53l-157 -2z" />
<glyph unicode="0" horiz-adv-x="782" d="M35 78q0 12 1 32.5t5 39.5q2 16 4 37.5t4 31.5q2 16 4 32.5t4 33.5l113 876q4 6 12 23q8 20 25.5 49t62.5 67l166 -2v-2h150q8 -10 15 -19t11 -17l74 -72q35 -41 44 -69.5t13 -47.5q2 -4 2 -11t3 -11l-123 -875l-19 -133q-14 -88 -34.5 -123t-63.5 -35l-62 -4l-237 6 q-25 0 -43 19l-82 82q-49 12 -49 92zM61 147q-10 -82 0.5 -113.5t44.5 -31.5l238 -6v4h62q35 0 53 31.5t30 113.5l19 134h2l121 870q-6 16 -10.5 48t-42.5 79h-156v2l-143 2q-51 -45 -64.5 -77t-24.5 -48l-112 -872h2zM219 154l23 155l104 815h123l-115 -815l-20 -155h-2v-2 z" />
<glyph unicode="1" horiz-adv-x="532" d="M45 -23l135 1018h-22l-97 97h-12l27 208h334l-2 -12l98 -96l-166 -1315l-186 4l-97 96h-12zM68 -2l157 -4l162 1286h-293l-22 -168h143z" />
<glyph unicode="2" horiz-adv-x="806" d="M31 -27l69 537q2 53 22.5 100t50.5 82t65.5 56.5t70.5 25.5h113q2 16 3 32.5t3 33.5h-162l-96 96h-12l22 184q6 41 23 74q25 49 63.5 70.5t82.5 28.5t90 5t87 -4q47 0 81 -17t50 -54l76 -74q41 -41 41 -127q0 -43 -10 -94q-10 -72 -20.5 -145.5t-20.5 -145.5 q-4 -53 -13.5 -83t-26.5 -45t-42 -19.5t-61 -6.5h-166q-10 -80 -20.5 -156.5t-20.5 -154.5h172l-2 -12l98 -97l-23 -186h-479l-96 96h-12zM53 -6h451l18 158h-280l57 448h178q33 2 55.5 6t38 17.5t23.5 41t12 76.5l41 291q23 125 -9 183.5t-112 58.5q-102 10 -154.5 5 t-75 -16.5t-55 -45t-40.5 -99.5l-21 -162h168l21 162h116l-45 -364h-129q-35 -4 -68.5 -23.5t-60 -50.5t-44 -75t-17.5 -97z" />
<glyph unicode="3" horiz-adv-x="788" d="M45 184q2 20 4 42t6 44q4 23 6 47.5t7 47.5l215 94l-2 -17l77 -77q2 8 2 16t2 18q-2 0 -2 -1t-2 -1l-98 99q-10 -4 -12 -7l22 193l-34 -12l-99 96l-12 -4l49 338q4 43 19.5 78.5t35 61.5t38 42t30.5 18h213q43 -8 67.5 -26.5t40.5 -50.5l64 -64q-2 0 -2 2l8 -6 q25 -25 37 -63.5t29 -94.5l-62 -444q-16 -115 -31.5 -240t-31.5 -239q-20 -88 -73.5 -134t-125.5 -59h-221l-96 96h-9q-41 43 -55 101.5t-4 105.5zM66 178q-12 -41 1 -93t46 -87h213q66 10 116 55t70 129l63 475h3l59 441q-10 41 -19.5 72.5t-23.5 54t-34.5 36t-53.5 19.5 h-203q-10 -2 -27.5 -15.5t-35 -38t-30.5 -57t-15 -71.5l-43 -301l163 61l35 240h129l-47 -299l-131 -56l-29 -221l138 60l-58 -404l-129 4l33 244l-168 -74z" />
<glyph unicode="4" horiz-adv-x="794" d="M29 238l24 184q27 193 54.5 391.5t54.5 390.5q2 10 3 22.5t3 26.5q2 10 3 22.5t1 24.5h490l-3 -12l99 -96l-25 -172l-80 -580h9l-3 -12l99 -96l-25 -191h-121q-10 -59 -19 -127.5t-20 -128.5h-190l-96 97h-13l21 159h-158l-96 97h-12zM51 258h283l-37 -256h162l39 256 h120l21 162h-119l96 704h2l21 156h-446l-11 -78l-108 -782zM229 420l99 708l129 -2l-99 -706h-129z" />
<glyph unicode="5" horiz-adv-x="819" d="M49 184q2 20 4 42t6 44q4 23 6.5 47.5t6.5 47.5l53 22l-33 33q-4 -2 -6 -2t-6 -2l100 684q6 72 41 123t76 75l381 2l12 -20v-2l86 -86l10 -16q-6 -76 -11 -108t-9 -48q-2 -6 -3 -10t-1 -21l-172 2h-119q-6 -45 -12 -85t-13 -81q49 23 98.5 44.5t90.5 41.5l-2 -16l96 -96 l-96 -725q-20 -88 -73.5 -134t-125.5 -59h-221l-96 96h-8q-41 43 -55.5 101.5t-4.5 105.5zM70 178q-12 -41 1 -93t46 -87h213q66 10 116 55t70 129l92 697l-303 -138l51 367h131v-2h158v2q0 6 3 15.5t6 26.5t7.5 48t8.5 80l-2 2l-363 -2q-37 -23 -68.5 -69t-35.5 -111 l-95 -649l308 133l-58 -404l-129 4l33 244l-168 -74zM338 389l24 -24l7 36q-8 -4 -15.5 -7t-15.5 -5z" />
<glyph unicode="6" d="M49 182q4 33 9 66t10 67l18 136l94 649q6 72 41 123t76 75l319 2q12 -14 23 -32l78 -76q35 -41 43 -88t2 -100l-29 -154l-39 -19l35 -32l-96 -725q-20 -88 -73.5 -134t-125.5 -59h-221l-96 96h-8q-41 41 -56.5 100.5t-3.5 106.5v-2zM70 178q-12 -41 1 -93t46 -87h213 q66 10 116 55t70 129l92 697l-303 -138l51 367h131l-30 -221l161 74l27 147q6 51 -1 94t-36 78l-303 -2q-37 -23 -68.5 -69t-35.5 -111l-95 -649h3zM227 182l47 338l140 62l-58 -404zM446 825q4 2 9.5 4t9.5 5l-14 16q-2 -6 -2 -12.5t-3 -12.5z" />
<glyph unicode="7" horiz-adv-x="819" d="M31 -20l364 1030h-94l-96 96h-12l22 194h496l-4 -10l98 -98l-404 -1143l-59 -166h-201l-96 97h-14zM59 0h170l56 156v-4l397 1128h-449l-18 -154h244z" />
<glyph unicode="8" horiz-adv-x="811" d="M51 184l49 324q2 16 4 34.5t5 32.5q2 16 4 36t6 32q4 14 16 26.5t31 24.5l-6 6l-25 31l51 369q6 72 41 123t76 75l320 2q6 -8 11 -15t9 -15l2 -2l78 -76q35 -41 43 -88t2 -100l-39 -279h2q-6 -41 -14 -86t-15 -86l-40 -21q2 -4 8 -10q4 -4 5 -8t5 -8l16 -14l-57 -418 q-20 -88 -73.5 -134t-125.5 -59h-221l-96 96h-8q-39 41 -58.5 102.5t-5.5 106.5v-2zM72 182q-12 -41 3 -95t48 -89h213q66 10 116 55t70 129l58 406q-4 4 -10.5 11t-14.5 17t-18 23l24 12l25 13h4l24 165l-2 -8l39 287q6 51 -1 94t-36 78l-303 -2q-37 -23 -68.5 -69 t-35.5 -111l-51 -361l20 -24q8 -10 21 -23q-23 -16 -40.5 -29.5t-17.5 -21.5l-18 -133zM233 182l46 342l135 64l-62 -406h-119zM311 741l51 367h132l-45 -305zM580 588h2l-2 2v-2z" />
<glyph unicode="9" d="M43 172l29 158l37 16l-23 27l-12 -6l98 739q20 90 75.5 136t127.5 58h225l12 -16t13 -16l75 -76q37 -41 52.5 -97.5t3.5 -101.5q-10 -66 -18.5 -134t-18.5 -134l-94 -649q-6 -70 -40 -119t-75 -74l-313 -2l-97 96h-8q-37 45 -46 93.5t-3 101.5zM63 170q-6 -51 1.5 -94 t35.5 -78l303 2q37 23 69 69t36 111l94 649h-2l39 271q12 41 -1 93t-46 87h-213q-66 -10 -116 -55t-70 -129l-93 -697l303 138l-51 -367h-131l31 221l-162 -74zM295 696l57 404l129 -4l-47 -338zM338 344l14 -16q2 4 2 10t2 10v4q-6 -4 -18 -8z" />
<glyph unicode=":" horiz-adv-x="485" d="M27 -20l24 194h205q0 -4 -1 -6t-1 -4l98 -98q-4 -20 -7 -48t-7 -51q-4 -16 -6 -39.5t-6 -42.5l-191 -2l-96 97h-12zM49 0l162 2q6 43 12 80t10 72h-163zM135 764l27 194h200q-2 -2 -2 -4v-6l99 -98l-4 -33q-2 -12 -4 -25.5t-2 -19.5q-2 -14 -3.5 -28.5t-3.5 -30.5 q0 -4 -1 -8.5t-1 -6.5q-2 -8 -2 -30h-194l-97 96h-12zM158 784h164q0 8 1 15.5t3 17.5q4 35 6 63.5t6 57.5h-158z" />
<glyph unicode=";" horiz-adv-x="479" d="M23 -20l24 194h205q0 -2 -1 -4t-1 -6l98 -98q-2 -10 -4 -29t-4 -33q-6 -68 -39 -287l-108 -2l-97 97h-12l14 104l-63 64h-12zM45 0h84l-23 -168l80 2q12 82 18.5 135.5t11.5 89t7 57t4 38.5h-161zM131 764l27 194h200q-2 -2 -2 -4v-6l99 -98l-4 -33q-2 -12 -4.5 -25.5 t-2.5 -19.5q-2 -14 -3 -28.5t-3 -30.5q0 -4 -1 -8.5t-1 -6.5q-2 -8 -2 -30h-194l-97 96h-12zM154 784h163q0 8 1.5 15.5l3.5 17.5q4 35 6 63.5t6 57.5h-158z" />
<glyph unicode="&#x3c;" horiz-adv-x="696" d="M18 633l363 500l199 2l-9 -13l99 -96l-353 -502l213 -463h-184l-96 97h-10zM41 631l211 -453h154l-207 453l340 483l-148 -2z" />
<glyph unicode="=" horiz-adv-x="1165" d="M45 418l27 200l903 -2l-2 -12l98 -96l-27 -184h-366q-113 0 -245 -1t-279 -1l-97 96h-12zM68 438h249.5t221 1t201 1h190.5l22 156l-862 2zM98 760l19 198h907l-2 -12l98 -96l-22 -152l6 -4v-28l-37 -2l-2 2h-348q-111 0 -240 -1t-270 -1l-96 96h-13zM121 780h244.5 t218 1t202 1h193.5v-2l22 2h-22l22 156h-864zM930 438h2v2h-2v-2z" />
<glyph unicode="&#x3e;" horiz-adv-x="702" d="M27 158l358 508l-217 469h199l8 -21l90 -88l219 -469l-358 -494l-185 -2l-96 97h-18zM68 178l147 2l350 482l-211 452h-153l207 -452z" />
<glyph unicode="?" horiz-adv-x="669" d="M29 936l14 172q8 53 29.5 100t66.5 88l320 -4q12 -10 23.5 -22.5t21.5 -28.5l69 -70q29 -29 46.5 -75.5t3.5 -108.5q-23 -166 -45.5 -335t-45.5 -333h-194l-96 97h-13l47 325l15 95l-154 4l-96 96h-12zM51 956l152 -4l18 154l131 -2l-55 -365l-45 -303h166l88 658 q14 63 -5.5 109t-49.5 69l-304 4q-39 -35 -57 -78t-27 -92zM168 -20l25 194h204q0 -4 -1 -6t-1 -4l99 -98q-4 -20 -7.5 -48t-7.5 -51q-4 -16 -6 -39.5t-6 -42.5l-191 -2l-96 97h-12zM190 0l162 2q6 43 12.5 80t10.5 72h-164z" />
<glyph unicode="@" horiz-adv-x="1492" d="M55 -141q8 70 18.5 150.5t20.5 163.5t21.5 165t21.5 156q23 162 43.5 321.5t40.5 314.5l2 5q4 4 5 8t5 8l5 4q16 27 53 63.5t129 81.5h442l367 3q47 -31 69.5 -55.5t32.5 -43.5l64 -63q25 -25 33 -44.5t12 -35.5q4 -27 10 -33q0 -2 2 -2l-137 -991l-426 2l-287 -4 q-4 4 -7 6t-7 6l-84 84h-6q-78 72 -88 113q-12 -92 -24.5 -182.5t-25.5 -182.5h629q2 16 4 33.5t6 36.5q4 18 5.5 37.5t3.5 35.5h194l-2 -12l98 -96l-18 -164q-12 -51 -26.5 -85t-36 -53.5t-52 -26.5t-75.5 -7h-228l-549 4q-43 0 -74.5 7t-50.5 28l-77 78q-37 16 -51.5 55 t-4.5 111zM73 -226q5 -32 21.5 -49.5t46 -22.5t70.5 -5l549 -4v4l227 -4q41 0 69.5 7t48 25.5t33 50t25.5 81.5l17 143h-154l-16 -143h-781l170 1267h781l-113 -827h-172l72 520l-21 49q4 8 -47 39l-274 6q-84 12 -109 -45l-18 -139l151 -22l10 67h136l-19 -129h-182 q-109 -16 -119 -70l-45 -325q-6 -25 76 -98l280 4v-2h414l135 972q-8 10 -10 25.5t-10 36t-28.5 44t-65.5 52.5l-359 -2v2l-438 -2q-57 -29 -89 -52.5t-49.5 -43t-26.5 -34.5t-19 -26l-164 -1267q-8 -51 -3 -83zM457 586q18 45 86 67l-54 54l-14 2l14 108q-8 -59 -16 -115.5 t-16 -115.5zM489 817l5 29q-2 -8 -3.5 -14.5t-1.5 -14.5zM496 870q33 78 131 62h-2q35 -2 69.5 -3t69.5 -1q35 -2 72.5 -2h72.5q55 -31 58 -54l88 -88q8 -8 8 -16q4 -10 10 -25.5t10 -25.5l-55 -400h23q14 98 25 196.5t26 197.5q10 76 20.5 148.5t20.5 148.5h-629 q-4 -35 -9 -69t-9 -69zM594 303l27 189l135 -3l-27 -186h-135z" />
<glyph unicode="A" horiz-adv-x="800" d="M33 -20l149 1079q8 59 33 119.5t76 113.5l299 2q33 -25 49 -55l76 -74q37 -37 43 -88q4 -38 4 -87v-34l-148 -1073h-186l-90 90q-4 -23 -5 -45t-5 -45h-187l-96 97h-12zM55 0h158l78 573l139 52l-88 -625h158l145 1061v26q0 57 -7 101q-9 53 -56 86l-283 -2 q-45 -47 -66.5 -101.5t-29.5 -113.5zM315 739l52 377h131l-47 -328z" />
<glyph unicode="B" horiz-adv-x="811" d="M33 -20l184 1320l320 3q94 -12 122 -68l78 -78q37 -37 37 -130v-19l-31 -207q-10 -66 -22 -110t-53 -85q10 -10 18 -24.5t16 -32.5q0 -4 3 -4l2 -2l-60 -432q-6 -70 -15 -114t-24.5 -69.5t-39 -35t-58.5 -9.5h-369l-96 97h-12zM55 0h353q33 0 53 7t33.5 29.5t21.5 64.5 t14 114l60 424q-10 29 -19.5 46t-33.5 17q47 41 62 89.5t28 113.5l30 207v12q1 77 -23 112q-26 38 -99 46l-299 -2zM238 154l65 469q0 4 21.5 10t46.5 14q29 8 67 21l-73 -514h-127zM332 817l41 309h131l-39 -266z" />
<glyph unicode="C" horiz-adv-x="808" d="M33 -23l184 1323l399 -4q8 -10 13.5 -18t11.5 -16l2 -2l74 -72q35 -41 44 -69.5t13 -47.5q2 -4 2 -11t2 -11l-28 -205h-187l-86 86q-23 -152 -43 -297.5t-43 -292.5h176l-2 -12l99 -97l-27 -190q-14 -88 -34.5 -123t-63.5 -35l-398 -2l-96 96h-12zM55 -2l381 2 q35 0 53.5 31.5t30.5 113.5l25 174h-158l-22 -165h-129l137 970h127l-23 -163h158l27 188q-6 16 -10.5 48t-43.5 79l-372 4z" />
<glyph unicode="D" horiz-adv-x="813" d="M33 -23l184 1323l399 -4q8 -10 13.5 -18t11.5 -16l2 -2l74 -72q35 -41 44 -69.5t13 -47.5q2 -4 2 -11t2 -11l-123 -875l-18 -133q-14 -88 -34.5 -123t-63.5 -35l-398 -2l-96 96h-12zM55 -2l381 2q35 0 53.5 31.5t30.5 113.5l19 134h2l121 870q-6 16 -10.5 48t-43.5 79 l-372 4zM236 154l137 970h127l-115 -815l-20 -155h-129z" />
<glyph unicode="E" horiz-adv-x="819" d="M29 -20l151 1105q6 45 17.5 82t35 63.5t61.5 43t99 22.5l303 4l-2 -12l99 -96l-25 -182h-287q-8 -51 -15 -97.5t-13 -93.5q31 10 61.5 20.5t58.5 20.5l5 -16l94 -94l39 -177l-305 -104q-10 -78 -22.5 -150.5t-23.5 -146.5h179l-2 -12l98 -97l-25 -180h-473l-96 97h-12z M51 0h445l20 152h-287l60 430l303 104l-33 148l-246 -84l54 376h286l21 154l-279 -4q-57 -6 -92 -21.5t-55.5 -40t-30.5 -57.5t-16 -74z" />
<glyph unicode="F" d="M29 -20l151 1105q6 45 17.5 82t35 63.5t61.5 43t99 22.5l303 4l-2 -12l99 -96l-25 -182h-287q-8 -51 -15 -97.5t-13 -93.5q31 10 61.5 20.5t58.5 20.5l5 -16l94 -94l39 -177l-305 -104q-16 -131 -30 -228.5t-24 -165t-17 -108.5t-9 -59q-4 -10 -11.5 -13.5t-11.5 -0.5 l8 -11h-174l-96 97h-12zM51 0h158l-2 -6l2 12q4 20 14 85t26.5 183.5t39.5 307.5l303 104l-33 148l-246 -84l54 376h286l21 154l-279 -4q-57 -6 -92 -21.5t-55.5 -40t-30.5 -57.5t-16 -74zM203 0l4 -4q2 0 3 1t3 1q-4 0 -6 1t-4 1z" />
<glyph unicode="G" d="M29 -23l184 1323l399 -4q8 -10 15.5 -19t11.5 -17l74 -72q35 -41 44 -69.5t13 -47.5q2 -4 2 -11t2 -11l-29 -205h-186l-86 86q-8 -53 -14 -104.5t-15 -100.5l187 57l-2 -14l96 -96l-92 -631q-10 -86 -34 -122t-64 -36l-398 -2l-96 96h-12zM51 -2l381 2q35 0 54.5 31.5 t29.5 113.5l88 609l-233 -76l-27 -189l70 27l-54 -362h-129l138 970h127l-23 -163h158l26 188q-6 16 -10 48t-43 79l-373 4z" />
<glyph unicode="H" horiz-adv-x="821" d="M31 -20l180 1320h201q-2 -4 -2 -6t-2 -6l75 -76q4 23 6.5 44.5t6.5 43.5h198q-2 -4 -2 -10l99 -98q-23 -158 -38.5 -272.5t-25.5 -188.5q-10 -76 -16 -124t-13 -87q-14 -98 -28.5 -204.5t-28.5 -204.5q-6 -59 -13 -112.5t-18 -115.5h-186l-86 86q-4 -23 -7 -44t-5 -42 h-187l-96 97h-12zM53 0h158l20 154l66 469q0 4 21.5 10t46.5 14q29 8 67 21l-74 -514l-20 -154h158q10 63 16 108.5t12 106.5l58 410q6 39 13 86t16.5 120.5t23.5 181t37 267.5h-158l-55 -420l-133 -43q14 123 24 202t17.5 129t11.5 78.5t8 53.5h-158z" />
<glyph unicode="I" horiz-adv-x="524" d="M23 -20l184 1320h199q-2 -4 -3 -10l99 -98q-4 -25 -9.5 -56.5t-12.5 -85t-17 -134t-25 -203.5q-4 -23 -5 -41.5t-5 -36.5q-14 -100 -24.5 -176t-22.5 -156t-25.5 -178t-33.5 -240l-191 -2l-96 97h-12zM45 0l162 2q14 104 25.5 181t20.5 139.5t16 114.5t15.5 108.5 t16.5 121t21 150.5q14 123 24 202t17.5 129t11.5 78.5t8 53.5h-158z" />
<glyph unicode="J" horiz-adv-x="788" d="M18 70q0 14 1 34.5t6 40.5q10 84 21 179.5t24 191.5q10 70 18 139.5t16 126.5l252 -92l-2 -10l25 -23q2 10 2 18.5t2 18.5q20 154 38.5 306.5t39.5 302.5l201 -5l-3 -12l99 -96l-176 -1307h-392q-31 0 -45 15l-86 86q-41 14 -41 86zM43 30q10 -30 45 -30h379l172 1278 l-160 4l-147 -1130h-129l45 362l61 -27l25 189l-213 78l-76 -611q-7 -45 -7 -74q0 -25 5 -39z" />
<glyph unicode="K" horiz-adv-x="788" d="M31 -20l178 1320h203l-2 -12l26 -26q4 10 8.5 19t8.5 19h213l-7 -12l99 -96l-223 -518q25 -190 51 -396t51 -397l-193 2l-96 97h-6q-4 -25 -6 -49.5t-6 -47.5h-191l-96 97h-12zM53 0h162l57 428l21 64l61 -492l164 -2l-100 778l217 504h-168l-123 -328l45 328h-162z" />
<glyph unicode="L" horiz-adv-x="659" d="M27 -23l184 1323l199 -2l-2 -12l98 -96l-144 -1020l175 -4q0 -8 -2 -12l98 -97q-12 -98 -36 -136t-65 -38l-397 -2l-96 96h-12zM49 -2l381 2q35 0 54.5 31.5t29.5 113.5v7h-178v2h-107l158 1124l-158 2z" />
<glyph unicode="M" horiz-adv-x="1105" d="M39 -20q4 25 6 51t6 49q4 25 6 47.5t6 42.5q0 2 1.5 3t1.5 3l116 828l19 133q16 92 36.5 127.5t67.5 35.5h270l13 -20l8 -8l2 2q0 2 6 8l19 18h262q51 0 69 -43l82 -81q25 -25 25 -90q0 -26 -4 -58l-142 -1001q-4 -16 -5 -30.5t-3 -31.5q-2 -16 -5 -38.5t-7 -43.5h-190 l-78 78q-2 -16 -5.5 -37.5t-7.5 -40.5h-190l-80 80q-4 -20 -6 -31.5t-4 -21.5q0 -6 -1 -15.5t-1 -11.5h-185l-96 97h-12zM61 0h154q2 12 6 29.5t10.5 58.5t16.5 112.5t27.5 193.5t42 300t59.5 432h2l-4 2h123q-35 -233 -61.5 -417.5t-46 -322.5t-32 -234.5t-20.5 -153.5h162 q6 41 10 71.5t8 59.5v2q6 43 16.5 110.5t24.5 167t32.5 235.5t43.5 319l22 161v2h121q-35 -233 -61.5 -417.5t-46 -322.5t-31.5 -234.5t-21 -153.5h162q6 41 10.5 71.5t8.5 59.5l141 1002q4 33 4 58q0 37 -9 57q-15 32 -50 32h-143.5h-76h-29.5h-5q2 0 -3 -3t-10 -9 q-4 -4 -6 -8.5t-6 -8.5q-8 -8 -10 -12t-4 -6l-8 16l-9 17l-10 14h-260q-35 0 -53.5 -31.5t-30.5 -113.5l-18 -134h-2l-115 -827q-4 -31 -10 -73t-15 -101z" />
<glyph unicode="N" horiz-adv-x="815" d="M33 -20q4 25 6 51t6 49q4 25 6 47.5t6 42.5q0 2 1 3t1 3l117 828l19 133q16 92 36.5 127.5t67.5 35.5l299 -2q53 0 70 -43l82 -81q16 -16 22 -52q3 -15 3 -34q0 -26 -5 -60l-141 -997q-4 -16 -4 -31.5t-4 -34.5q-2 -16 -5.5 -39.5t-7.5 -42.5h-190l-80 80 q-4 -20 -6 -31.5t-4 -21.5q0 -6 -1 -15.5t-1 -11.5h-185l-96 97h-12zM55 0h154q2 12 6 29.5t10 58.5t16.5 112.5t28 193.5t42 300t59.5 432h2l-4 2h123q-35 -233 -62 -417.5t-46 -322.5t-31.5 -234.5t-20.5 -153.5h162q6 43 10 74.5t8 60.5v-4l141 1002q4 33 4 58 q0 37 -9 55q-15 32 -50 32l-299 2q-35 0 -53.5 -31.5t-30.5 -113.5l-18 -134h-2l-115 -827q-4 -31 -10.5 -73t-14.5 -101z" />
<glyph unicode="O" horiz-adv-x="774" d="M31 78q0 12 1 32.5t5 39.5q2 16 4 37.5t4 31.5q2 16 4 32.5t4 33.5l113 876q4 6 12 23q8 20 25.5 49t62.5 67l166 -2v-2h150q8 -10 15 -19t11 -17l74 -72q35 -41 44 -69.5t13 -47.5q2 -4 2 -11t2 -11l-122 -875l-19 -133q-14 -88 -34.5 -123t-63.5 -35l-62 -4l-237 6 q-25 0 -43 19l-82 82q-49 12 -49 92zM57 147q-5 -40 -5 -68q0 -29 6 -45q10 -32 44 -32l238 -6v4h61q35 0 53.5 31.5t30.5 113.5l19 134h2l121 870q-6 16 -10.5 48t-43.5 79h-155v2l-144 2q-51 -45 -64 -77t-24 -48l-112 -872h2zM215 154l23 155l104 815h123l-115 -815 l-20 -155h-2v-2z" />
<glyph unicode="P" horiz-adv-x="788" d="M31 -20l184 1320l320 3q94 -12 122 -68l78 -78q37 -37 37 -130v-19l-31 -207q-12 -70 -28.5 -119t-65.5 -92q-14 -6 -43 -16.5t-65 -18.5q-10 -4 -26.5 -10t-33.5 -13q-23 -6 -42 -11t-19 -3l-88 -635h-191l-96 97h-12zM53 0h162l86 623q0 2 19.5 9t44 15t45 14.5 t24.5 10.5q39 8 64.5 17t36.5 13q47 41 62 89.5t28 113.5l30 207v12q1 77 -23 112q-26 38 -100 46l-299 -2zM330 817l41 309h131l-39 -266z" />
<glyph unicode="Q" horiz-adv-x="774" d="M31 78q0 12 1 32.5t5 39.5q2 16 4 37.5t4 31.5v-2q2 16 4 33.5t4 34.5l113 876q4 6 12 23q8 20 25.5 49t62.5 67l152 -4h164q8 -10 15 -19t11 -17l74 -72q35 -41 44 -69.5t13 -47.5q2 -4 2 -11t2 -11l-122 -875l-19 -133q-10 -61 -22.5 -95t-32.5 -48v-174h-168l-96 96 h-13v65h-65q-29 0 -45 17l-84 82q-45 12 -45 94zM57 147q-5 -40 -5 -68q0 -29 6 -45q10 -32 44 -32l189 -4v-158h139v166q20 10 32.5 43t22.5 96l19 134h2l121 870q-6 16 -10.5 48t-43.5 79h-155v2l-144 2q-51 -45 -64 -77t-24 -48l-112 -872h2zM215 154l23 155l104 815h123 l-115 -815v-2h-59v-155z" />
<glyph unicode="R" d="M31 -20l184 1320l320 3q94 -12 122 -68l78 -78q37 -37 37 -130v-19l-31 -207q-12 -68 -28.5 -117t-67.5 -94q-14 -4 -44 -17.5t-58 -17.5q-10 -6 -39 -12q-8 -2 -10 -2t-13 -4q12 -55 24.5 -106.5t26 -104t27.5 -110.5t33 -128q10 -41 23.5 -93t25.5 -106l-186 -6l-97 97 h-10l-4 16q-4 -29 -7 -56.5t-7 -56.5h-191l-96 97h-12zM53 0h162l53 383l97 -383l155 6q-31 123 -52.5 210t-38.5 156.5t-32.5 133t-34.5 141.5q23 8 45.5 14.5t26.5 10.5q39 8 64.5 17t36.5 13q47 41 62 89.5t28 113.5l30 207v12q1 77 -23 112q-26 38 -100 46l-299 -2z M330 817l41 309h131l-39 -266z" />
<glyph unicode="S" horiz-adv-x="796" d="M45 184q2 20 4 42t6 44q4 23 6 47.5t7 47.5l53 22l-33 33q-4 -2 -6 -2t-6 -2l100 684q6 72 41 123t76 75l319 2q12 -14 23 -32l78 -76q35 -41 43 -88q5 -27 5 -56q0 -22 -3 -44l-29 -154l-39 -19l35 -32l-96 -725q-20 -88 -73.5 -134t-125.5 -59h-221l-96 96h-9 q-41 43 -55 101q-8 34 -8 65q0 21 4 41zM66 178q-6 -20 -6 -42q0 -24 7 -51q13 -52 46 -87h213q66 10 116 55t70 129l92 697l-303 -138l51 367h131l-30 -221l161 74l27 147q3 24 3 45q0 25 -4 49q-7 43 -36 78l-303 -2q-37 -23 -68.5 -69t-35.5 -111l-95 -649l308 133 l-58 -404h-129l33 248l-168 -74zM334 389l24 -24l7 36q-8 -4 -15.5 -7t-15.5 -5zM442 825q4 2 9.5 4t9.5 5l-15 16q-2 -6 -2 -12.5t-2 -12.5z" />
<glyph unicode="T" horiz-adv-x="661" d="M41 -23l141 1020h-4l-96 97h-12l26 206h455l-2 -12l98 -96l-24 -195h-131q-8 -47 -16.5 -117.5t-18.5 -168.5q-4 -23 -5 -41.5t-6 -36.5q-14 -100 -24 -176t-22.5 -156t-26 -178t-33.5 -240l-190 -2l-97 96h-12zM63 -2l162 2q14 104 25.5 181t21 139.5t16.5 114.5 t15 108.5t16.5 121t20.5 150.5q10 106 19.5 178t17.5 121h131l20 166h-413l-23 -166h127z" />
<glyph unicode="U" horiz-adv-x="813" d="M45 150l141 1001q2 8 2 13t2 16q0 12 5 32q2 16 5 43t7 45h205q-2 -4 -2 -12l67 -69q4 18 6 29.5t4 21.5q0 4 1 8t1 8v14h197q0 -4 -1 -6t-1 -4l98 -98q-8 -53 -14 -101.5t-10 -76.5q0 -4 -1 -6t-1 -7l-117 -827l-18 -133q-14 -88 -35 -123t-64 -35l-299 2q-33 0 -49 17 l-84 84q-31 10 -43 48q-7 21 -7 53q0 28 5 63zM66 147q-4 -33 -4 -58q0 -37 9 -55q15 -32 50 -32l299 -2q35 0 53.5 31.5t30.5 113.5l18 134h2l115 827q4 31 10 73t15 101h-154q-2 -12 -6 -29.5t-10.5 -58.5t-16.5 -112.5t-27.5 -193.5t-42 -300t-59.5 -432h-2l4 -2h-123 q35 233 61.5 417.5t46 322.5t32 234.5t20.5 153.5h-162q-6 -43 -10 -74.5t-8 -60.5v4z" />
<glyph unicode="V" horiz-adv-x="800" d="M51 1300h203v-12l96 -96v-379q29 109 64 230.5t73 256.5h203l-4 -12l98 -96l-368 -1309h-252l-96 97h-13zM72 1280l4 -1280h225l361 1280h-158q-53 -188 -94 -337.5t-75 -267.5t-58.5 -207t-43.5 -155v967h-161z" />
<glyph unicode="W" horiz-adv-x="1241" d="M51 1300h203v-12l96 -96v-381q29 104 62.5 227t74.5 262l195 -2v-12l96 -96v-379q29 109 64 230.5t73 256.5h203l-4 -12l98 -96l-368 -1309h-252l-96 96h-13l-2 152q-16 -63 -32.5 -123.5t-32.5 -122.5h-252l-96 97h-13zM72 1280l4 -1280h225l201 711l2 -713h225 l361 1280h-158q-53 -188 -94 -337.5t-75 -267.5t-58.5 -207t-42.5 -155v967h-3l3 2h-158q-102 -371 -168 -603.5t-103 -363.5v967h-161z" />
<glyph unicode="X" horiz-adv-x="854" d="M29 -23l213 728q-4 70 -9.5 145.5t-9.5 146.5q-4 76 -8 154t-8 149h209v-14l76 -76q6 23 11 45.5t11 44.5h217l-4 -12l98 -96l-186 -606q-4 -174 -6 -352.5t-6 -350.5h-187l-86 86q-6 -23 -13 -46t-13 -46l-189 4l-96 96h-14zM57 -2l158 -4l156 510l-19 -504h158l12 692 l180 588h-172l-110 -424l-25 424h-168l35 -582z" />
<glyph unicode="Y" horiz-adv-x="794" d="M31 160l225 184l-4 -20l78 -80l22 176q2 10 3 18t1 19q-45 -16 -89 -33.5t-85 -32.5l-98 96q-8 -4 -12 -4l108 817h201l-2 -12l76 -78q4 23 6 45.5t6 44.5h199l-2 -12l98 -96l-146 -1143q-6 -131 -104 -170l-219 4q-12 0 -43 9.5t-60 37.5l-71 72q-31 16 -57.5 54 t-30.5 104zM51 154q4 -49 22.5 -79t41 -47.5t44 -22.5t31.5 -5l216 -4q90 33 94 158l143 1126h-158l-61 -483l-137 -54l71 537h-159l-101 -764l303 115l-61 -477h-129l18 143z" />
<glyph unicode="Z" horiz-adv-x="833" d="M29 -20l364 1030h-94l-96 96h-13l23 194h496l-4 -10l98 -98l-359 -1018q27 0 54.5 1t50.5 1l-2 -12l98 -96l-24 -183l-482 -2l-96 97h-14zM57 0l449 2l20 154l-243 -4l397 1128h-449l-18 -154h244z" />
<glyph unicode="[" horiz-adv-x="698" d="M27 -266l219 1569l332 -3l-3 -12l99 -96l-27 -184h-133l-55 -398q-14 -106 -23.5 -170.5t-13.5 -93.5q0 -4 -1 -6t-1 -6l-60 -408h19l-2 -10l98 -98l-24 -180h-316l-96 96h-12zM49 -246h287l20 152h-129l76 532l2 13q4 29 13.5 91t23.5 173l57 409h133l23 156l-291 2z " />
<glyph unicode="\" horiz-adv-x="913" d="M6 1307l201 -2l8 -21l90 -88l602 -1309l-192 2l-97 97h-10q-68 145 -112.5 242.5t-81.5 177t-73 158.5t-85 188q-6 14 -13 29.5t-16 31.5q-70 162 -109.5 250t-62.5 135q-16 33 -27.5 56.5t-21.5 52.5zM37 1286q10 -25 24.5 -53.5t38 -78.5t58.5 -129t88 -204 q39 -86 68.5 -150.5t55 -120.5t50 -108.5t53.5 -115t63.5 -139t84.5 -181.5l161 -2l-587 1280z" />
<glyph unicode="]" horiz-adv-x="698" d="M25 -266l26 192h129q10 63 18.5 126t18.5 128q10 66 18.5 130.5t18.5 129.5v13q0 8 4 24v-2q2 10 3 22.5t3 24.5q2 6 2 13.5t2 15.5v-2q4 33 9.5 75t15.5 95v-2l43 291h-10l-97 96h-12l27 196l331 3l-2 -11l99 -98l-226 -1556h-313l-96 96h-12zM47 -246h285l221 1528 l-291 -2l-22 -156h133l-60 -409q-16 -111 -25 -173.5t-14 -90.5v-13l-75 -532h-129z" />
<glyph unicode="^" horiz-adv-x="1179" d="M27 563l53 316q57 66 107.5 120t99.5 105l14 14q55 59 126 135t161 181q16 -20 33.5 -39t33.5 -37l35 -35q72 -80 123 -143.5t92 -116.5q49 -66 104.5 -135.5t145.5 -165.5l-31 -268l-98 96v-8l-362 430l-527 -535l-98 98zM57 623l518 528l437 -520l26 229 q-88 96 -141 161.5t-96 122t-90 116t-123 143.5q-88 -102 -152.5 -171t-119 -125t-104.5 -110.5t-112 -126.5z" />
<glyph unicode="_" horiz-adv-x="1378" d="M49 -518l27 199q51 0 106.5 1t108.5 1h205q174 0 362.5 -1t374.5 -6l-2 -10l98 -98l-24 -180l-1147 -2l-97 96h-12zM72 -498l1118 2l20 152q-293 4 -567 5t-549 -1z" />
<glyph unicode="`" horiz-adv-x="536" d="M18 1350l29 28h195l16 -24l84 -84l178 -269h-227l-96 97h-11q-12 23 -30.5 50.5t-28.5 41.5q-4 4 -8 11t-8 11q-18 29 -44 66t-49 72zM45 1348q47 -72 85 -127.5t69 -102.5h192l-160 240h-176z" />
<glyph unicode="a" horiz-adv-x="800" d="M33 -20l149 1079q8 59 33 119.5t76 113.5l299 2q33 -25 49 -55l76 -74q37 -37 43 -88q4 -38 4 -87v-34l-148 -1073h-186l-90 90q-4 -23 -5 -45t-5 -45h-187l-96 97h-12zM55 0h158l78 573l139 52l-88 -625h158l145 1061v26q0 57 -7 101q-9 53 -56 86l-283 -2 q-45 -47 -66.5 -101.5t-29.5 -113.5zM315 739l52 377h131l-47 -328z" />
<glyph unicode="b" horiz-adv-x="811" d="M33 -20l184 1320l320 3q94 -12 122 -68l78 -78q37 -37 37 -130v-19l-31 -207q-10 -66 -22 -110t-53 -85q10 -10 18 -24.5t16 -32.5q0 -4 3 -4l2 -2l-60 -432q-6 -70 -15 -114t-24.5 -69.5t-39 -35t-58.5 -9.5h-369l-96 97h-12zM55 0h353q33 0 53 7t33.5 29.5t21.5 64.5 t14 114l60 424q-10 29 -19.5 46t-33.5 17q47 41 62 89.5t28 113.5l30 207v12q1 77 -23 112q-26 38 -99 46l-299 -2zM238 154l65 469q0 4 21.5 10t46.5 14q29 8 67 21l-73 -514h-127zM332 817l41 309h131l-39 -266z" />
<glyph unicode="c" horiz-adv-x="808" d="M33 -23l184 1323l399 -4q8 -10 13.5 -18t11.5 -16l2 -2l74 -72q35 -41 44 -69.5t13 -47.5q2 -4 2 -11t2 -11l-28 -205h-187l-86 86q-23 -152 -43 -297.5t-43 -292.5h176l-2 -12l99 -97l-27 -190q-14 -88 -34.5 -123t-63.5 -35l-398 -2l-96 96h-12zM55 -2l381 2 q35 0 53.5 31.5t30.5 113.5l25 174h-158l-22 -165h-129l137 970h127l-23 -163h158l27 188q-6 16 -10.5 48t-43.5 79l-372 4z" />
<glyph unicode="d" horiz-adv-x="813" d="M33 -23l184 1323l399 -4q8 -10 13.5 -18t11.5 -16l2 -2l74 -72q35 -41 44 -69.5t13 -47.5q2 -4 2 -11t2 -11l-123 -875l-18 -133q-14 -88 -34.5 -123t-63.5 -35l-398 -2l-96 96h-12zM55 -2l381 2q35 0 53.5 31.5t30.5 113.5l19 134h2l121 870q-6 16 -10.5 48t-43.5 79 l-372 4zM236 154l137 970h127l-115 -815l-20 -155h-129z" />
<glyph unicode="e" horiz-adv-x="829" d="M33 -20l151 1105q6 45 17.5 82t35 63.5t61.5 43t99 22.5l303 4l-2 -12l99 -96l-25 -182h-287q-8 -51 -15 -97.5t-13 -93.5q31 10 61.5 20.5t59.5 20.5l4 -16l94 -94l39 -177l-305 -104q-10 -78 -22.5 -150.5t-22.5 -146.5h178l-2 -12l98 -97l-25 -180h-473l-96 97h-12z M55 0h445l20 152h-287l60 430l303 104l-33 148l-246 -84l54 376h286l21 154l-279 -4q-57 -6 -92 -21.5t-55.5 -40t-30.5 -57.5t-16 -74z" />
<glyph unicode="f" horiz-adv-x="808" d="M33 -20l151 1105q6 45 17.5 82t35 63.5t61.5 43t99 22.5l303 4l-2 -12l99 -96l-25 -182h-287q-8 -51 -15 -97.5t-13 -93.5q31 10 61.5 20.5t59.5 20.5l4 -16l94 -94l39 -177l-305 -104q-16 -131 -29.5 -228.5t-24 -165t-17.5 -108.5t-9 -59q-4 -10 -11.5 -13.5 t-11.5 -0.5l8 -11h-174l-96 97h-12zM55 0h158l-2 -6l2 12q4 19 14.5 84.5t26.5 184t39 307.5l303 104l-33 148l-246 -84l54 376h286l21 154l-279 -4q-57 -6 -92 -21.5t-55.5 -40t-30.5 -57.5t-16 -74zM207 0l4 -4q2 0 3 1t3 1q-4 0 -6 1t-4 1z" />
<glyph unicode="g" horiz-adv-x="813" d="M33 -23l184 1323l399 -4q8 -10 15.5 -19t11.5 -17l74 -72q35 -41 44 -69.5t13 -47.5q2 -4 2 -11t2 -11l-28 -205h-187l-86 86q-8 -53 -14 -104.5t-14 -100.5l186 57l-2 -14l96 -96l-92 -631q-10 -86 -33.5 -122t-64.5 -36l-398 -2l-96 96h-12zM55 -2l381 2 q35 0 54.5 31.5t29.5 113.5l88 609l-233 -76l-27 -189l70 27l-53 -362h-129l137 970h127l-23 -163h158l27 188q-6 16 -10.5 48t-43.5 79l-372 4z" />
<glyph unicode="h" horiz-adv-x="829" d="M35 -20l180 1320h201q-2 -4 -2 -6t-2 -6l75 -76q4 23 6.5 44.5t6.5 43.5h198q-2 -4 -2 -10l99 -98q-23 -158 -38.5 -272.5t-25.5 -188.5q-10 -76 -16 -124t-13 -87q-14 -98 -28.5 -204.5t-28.5 -204.5q-6 -59 -13 -112.5t-18 -115.5h-186l-86 86q-4 -23 -7 -44t-5 -42 h-187l-96 97h-12zM57 0h158l21 154l65 469q0 4 21.5 10t46.5 14q29 8 67 21l-74 -514l-20 -154h158q10 63 16 108.5t12 106.5l58 410q6 39 13 86t16.5 120.5t23.5 181t37 267.5h-158l-55 -420l-133 -43q14 123 24.5 202t17.5 129t11 78.5t8 53.5h-158z" />
<glyph unicode="i" horiz-adv-x="528" d="M25 -20l184 1320h199q-2 -4 -2 -10l98 -98q-4 -25 -9.5 -56.5t-12.5 -85t-17 -134t-25 -203.5q-4 -23 -5 -41.5t-5 -36.5q-14 -100 -24.5 -176t-22.5 -156t-25.5 -178t-33.5 -240l-191 -2l-96 97h-12zM47 0l162 2q14 104 25.5 181t20.5 139.5t16.5 114.5t15.5 108.5 t16 121t21 150.5q14 123 24 202t17.5 129t11.5 78.5t8 53.5h-158z" />
<glyph unicode="j" horiz-adv-x="794" d="M20 70q0 14 1.5 34.5t5.5 40.5q10 84 21 179.5t24 191.5q10 70 18 139.5t16 126.5l252 -92l-2 -10l25 -23q2 10 2 18.5t2 18.5q20 154 38.5 306.5t39.5 302.5l201 -5l-2 -12l98 -96l-176 -1307h-391q-31 0 -46 15l-86 86q-41 14 -41 86zM45 30q10 -30 45 -30h379 l172 1278l-160 4l-147 -1130h-129l45 362l61 -27l25 189l-213 78l-76 -611q-7 -45 -7 -74q0 -25 5 -39z" />
<glyph unicode="k" horiz-adv-x="792" d="M33 -20l178 1320h203l-2 -12l26 -26q4 10 8.5 19t8.5 19h213l-6 -12l98 -96l-223 -518q25 -190 51 -396t51 -397l-193 2l-96 97h-6q-4 -25 -6 -49.5t-6 -47.5h-191l-96 97h-12zM55 0h162l57 428l21 64l61 -492l164 -2l-100 778l217 504h-168l-123 -328l45 328h-162z" />
<glyph unicode="l" horiz-adv-x="665" d="M29 -23l184 1323l199 -2l-2 -12l98 -96l-143 -1020l174 -4q0 -8 -2 -12l98 -97q-12 -98 -36 -136t-64 -38l-398 -2l-96 96h-12zM51 -2l381 2q35 0 54.5 31.5t29.5 113.5v7h-178v2h-107l158 1124l-158 2z" />
<glyph unicode="m" horiz-adv-x="1105" d="M39 -20q4 25 6 51t6 49q4 25 6 47.5t6 42.5q0 2 1.5 3t1.5 3l116 828l19 133q16 92 36.5 127.5t67.5 35.5h270l13 -20l8 -8l2 2q0 2 6 8l19 18h262q51 0 69 -43l82 -81q25 -25 25 -90q0 -26 -4 -58l-142 -1001q-4 -16 -5 -30.5t-3 -31.5q-2 -16 -5 -38.5t-7 -43.5h-190 l-78 78q-2 -16 -5.5 -37.5t-7.5 -40.5h-190l-80 80q-4 -20 -6 -31.5t-4 -21.5q0 -6 -1 -15.5t-1 -11.5h-185l-96 97h-12zM61 0h154q2 12 6 29.5t10.5 58.5t16.5 112.5t27.5 193.5t42 300t59.5 432h2l-4 2h123q-35 -233 -61.5 -417.5t-46 -322.5t-32 -234.5t-20.5 -153.5h162 q6 41 10 71.5t8 59.5v2q6 43 16.5 110.5t24.5 167t32.5 235.5t43.5 319l22 161v2h121q-35 -233 -61.5 -417.5t-46 -322.5t-31.5 -234.5t-21 -153.5h162q6 41 10.5 71.5t8.5 59.5l141 1002q4 33 4 58q0 37 -9 57q-15 32 -50 32h-143.5h-76h-29.5h-5q2 0 -3 -3t-10 -9 q-4 -4 -6 -8.5t-6 -8.5q-8 -8 -10 -12t-4 -6l-8 16l-9 17l-10 14h-260q-35 0 -53.5 -31.5t-30.5 -113.5l-18 -134h-2l-115 -827q-4 -31 -10 -73t-15 -101z" />
<glyph unicode="n" horiz-adv-x="815" d="M33 -20q4 25 6 51t6 49q4 25 6 47.5t6 42.5q0 2 1 3t1 3l117 828l19 133q16 92 36.5 127.5t67.5 35.5l299 -2q53 0 70 -43l82 -81q16 -16 22 -52q3 -15 3 -34q0 -26 -5 -60l-141 -997q-4 -16 -4 -31.5t-4 -34.5q-2 -16 -5.5 -39.5t-7.5 -42.5h-190l-80 80 q-4 -20 -6 -31.5t-4 -21.5q0 -6 -1 -15.5t-1 -11.5h-185l-96 97h-12zM55 0h154q2 12 6 29.5t10 58.5t16.5 112.5t28 193.5t42 300t59.5 432h2l-4 2h123q-35 -233 -62 -417.5t-46 -322.5t-31.5 -234.5t-20.5 -153.5h162q6 43 10 74.5t8 60.5v-4l141 1002q4 33 4 58 q0 37 -9 55q-15 32 -50 32l-299 2q-35 0 -53.5 -31.5t-30.5 -113.5l-18 -134h-2l-115 -827q-4 -31 -10.5 -73t-14.5 -101z" />
<glyph unicode="o" horiz-adv-x="782" d="M35 78q0 12 1 32.5t5 39.5q2 16 4 37.5t4 31.5q2 16 4 32.5t4 33.5l113 876q4 6 12 23q8 20 25.5 49t62.5 67l166 -2v-2h150q8 -10 15 -19t11 -17l74 -72q35 -41 44 -69.5t13 -47.5q2 -4 2 -11t3 -11l-123 -875l-19 -133q-14 -88 -34.5 -123t-63.5 -35l-62 -4l-237 6 q-25 0 -43 19l-82 82q-49 12 -49 92zM61 147q-5 -40 -5 -68q0 -29 6 -45q10 -32 44 -32l238 -6v4h62q35 0 53 31.5t30 113.5l19 134h2l121 870q-6 16 -10.5 48t-42.5 79h-156v2l-143 2q-51 -45 -64.5 -77t-24.5 -48l-112 -872h2zM219 154l23 155l104 815h123l-115 -815 l-20 -155h-2v-2z" />
<glyph unicode="p" horiz-adv-x="792" d="M33 -20l184 1320l320 3q94 -12 122 -68l78 -78q37 -37 37 -130v-19l-31 -207q-12 -70 -28.5 -119t-65.5 -92q-14 -6 -42.5 -16.5t-65.5 -18.5q-10 -4 -26.5 -10t-33.5 -13q-23 -6 -42 -11t-19 -3l-88 -635h-191l-96 97h-12zM55 0h162l86 623q0 2 19.5 9t44 15t45 14.5 t24.5 10.5q39 8 64.5 17t36.5 13q47 41 62 89.5t28 113.5l30 207v12q0 77 -23 112q-26 38 -99 46l-299 -2zM332 817l41 309h131l-39 -266z" />
<glyph unicode="q" horiz-adv-x="778" d="M33 78q0 12 1 32.5t5 39.5q2 16 4 37.5t4 31.5v-2q2 16 4 33.5t4 34.5l113 876q4 6 12 23q8 20 25.5 49t62.5 67l152 -4h164q8 -10 15 -19t11 -17l74 -72q35 -41 44 -69.5t13 -47.5q2 -4 2 -11t2 -11l-122 -875l-19 -133q-10 -61 -22.5 -95t-32.5 -48v-174h-168l-96 96 h-13v65h-65q-29 0 -45 17l-84 82q-45 12 -45 94zM59 147q-5 -40 -5 -68q0 -29 6 -45q10 -32 44 -32l189 -4v-158h139v166q20 10 32.5 43t22.5 96l19 134h2l121 870q-6 16 -10.5 48t-43.5 79h-155v2l-144 2q-51 -45 -64 -77t-24 -48l-112 -872h2zM217 154l23 155l104 815h123 l-115 -815v-2h-59v-155z" />
<glyph unicode="r" horiz-adv-x="808" d="M33 -20l184 1320l320 3q94 -12 122 -68l78 -78q37 -37 37 -130v-19l-31 -207q-12 -68 -28.5 -117t-67.5 -94q-14 -4 -44 -17.5t-58 -17.5q-10 -6 -39 -12q-8 -2 -10 -2t-13 -4q12 -55 24.5 -106.5t26 -104t27.5 -110.5t33 -128q10 -41 23.5 -93t25.5 -106l-186 -6l-97 97 h-10l-4 16q-4 -29 -7 -56.5t-7 -56.5h-191l-96 97h-12zM55 0h162l53 383l97 -383l155 6q-31 123 -52 210t-38.5 156.5t-33 133t-33.5 141.5q23 8 45 14.5t26 10.5q39 8 64.5 17t36.5 13q47 41 62 89.5t28 113.5l30 207v12q1 77 -23 112q-26 38 -99 46l-299 -2zM332 817 l41 309h131l-39 -266z" />
<glyph unicode="s" horiz-adv-x="802" d="M47 184q2 20 4 42t6 44q4 23 6.5 47.5t6.5 47.5l53 22l-33 33q-4 -2 -6 -2t-6 -2l100 684q6 72 41 123t76 75l319 2q12 -14 23 -32l78 -76q35 -41 43 -88q5 -27 5 -56q0 -22 -3 -44l-29 -154l-39 -19l35 -32l-96 -725q-20 -88 -73.5 -134t-125.5 -59h-221l-96 96h-9 q-41 43 -55 101q-8 34 -8 65q0 21 4 41zM68 178q-6 -20 -6 -42q0 -24 7 -51q13 -52 46 -87h213q66 10 116 55t70 129l92 697l-303 -138l51 367h131l-30 -221l161 74l27 147q3 24 3 45q0 25 -4 49q-7 43 -36 78l-303 -2q-37 -23 -68.5 -69t-35.5 -111l-95 -649l308 133 l-58 -404h-129l33 248l-168 -74zM336 389l24 -24l7 36q-8 -4 -15.5 -7t-15.5 -5zM444 825q4 2 9.5 4t9.5 5l-14 16q-2 -6 -2.5 -12.5t-2.5 -12.5z" />
<glyph unicode="t" horiz-adv-x="665" d="M43 -23l141 1020h-4l-96 97h-12l26 206h455l-2 -12l98 -96l-24 -195h-131q-8 -47 -16.5 -117.5t-18.5 -168.5q-4 -23 -5 -41.5t-5 -36.5q-14 -100 -24.5 -176t-23 -156t-26 -178t-33.5 -240l-190 -2l-97 96h-12zM66 -2l161 2q14 104 25.5 181t21 139.5t16.5 114.5 t15 108.5t16.5 121t20.5 150.5q10 106 19.5 178t17.5 121h131l20 166h-413l-23 -166h127z" />
<glyph unicode="u" horiz-adv-x="817" d="M47 150l141 1001q2 8 2 13t3 16q0 12 4 32q2 16 5 43t7 45h205q-2 -4 -2 -12l67 -69q4 18 6 29.5t4 21.5q0 4 1.5 8t1.5 8v14h196q0 -4 -1 -6t-1 -4l98 -98q-8 -53 -14 -101.5t-10 -76.5q0 -4 -1 -6t-1 -7l-117 -827l-18 -133q-14 -88 -35 -123t-64 -35l-299 2 q-33 0 -49 17l-84 84q-31 10 -43 48q-7 21 -7 53q0 28 5 63zM68 147q-4 -33 -4 -58q0 -37 9 -55q15 -32 50 -32l299 -2q35 0 53.5 31.5t30.5 113.5l18 134h2l115 827q4 31 10 73t15 101h-154q-2 -12 -6 -29.5t-10.5 -58.5t-16.5 -112.5t-27.5 -193.5t-42 -300t-59.5 -432h-2 l4 -2h-123q35 233 61.5 417.5t46 322.5t32 234.5t20.5 153.5h-162q-6 -43 -10 -74.5t-8 -60.5v4z" />
<glyph unicode="v" d="M53 1300h203v-12l96 -96v-379q29 109 64 230.5t73 256.5h203l-4 -12l98 -96l-368 -1309h-252l-96 97h-13zM74 1280l4 -1280h225l361 1280h-158q-53 -188 -94 -337.5t-75 -267.5t-58.5 -207t-42.5 -155v967h-162z" />
<glyph unicode="w" horiz-adv-x="1243" d="M53 1300h203v-12l96 -96v-381q29 104 63 227t74 262l195 -2v-12l96 -96v-379q29 109 64 230.5t74 256.5h202l-4 -12l98 -96l-368 -1309h-252l-96 96h-13l-2 152q-16 -63 -32.5 -123.5t-32.5 -122.5h-252l-96 97h-13zM74 1280l4 -1280h225l201 711l2 -713h225l361 1280 h-158q-53 -188 -94 -337.5t-75 -267.5t-58.5 -207t-42.5 -155v967h-2l2 2h-158q-102 -371 -168 -603.5t-102 -363.5v967h-162z" />
<glyph unicode="x" horiz-adv-x="856" d="M31 -23l213 728q-4 70 -9.5 145.5t-9.5 146.5q-4 76 -8 154t-8 149h209v-14l76 -76q6 23 11 45.5t11 44.5h217l-4 -12l98 -96l-186 -606q-4 -174 -6 -352.5t-6 -350.5h-187l-86 86q-6 -23 -13 -46t-13 -46l-189 4l-96 96h-14zM59 -2l158 -4l156 510l-19 -504h158l12 692 l181 588h-173l-110 -424l-25 424h-168l35 -582z" />
<glyph unicode="y" horiz-adv-x="798" d="M33 160l225 184l-4 -20l78 -80l22 176q2 10 3 18t1 19q-45 -16 -89 -33.5t-85 -32.5l-98 96q-8 -4 -12 -4l108 817h201l-2 -12l76 -78q4 23 6 45.5t6 44.5h199l-2 -12l98 -96l-146 -1143q-6 -131 -104 -170l-219 4q-12 0 -43 9.5t-59 37.5l-72 72q-31 16 -57.5 54 t-30.5 104zM53 154q4 -49 22.5 -79t41 -47.5t44 -22.5t32.5 -5l215 -4q90 33 94 158l143 1126h-158l-61 -483l-137 -54l71 537h-159l-101 -764l303 115l-61 -477h-129l18 143z" />
<glyph unicode="z" horiz-adv-x="835" d="M31 -20l364 1030h-94l-96 96h-12l22 194h496l-4 -10l98 -98l-359 -1018q27 0 54.5 1t50.5 1l-2 -12l98 -96l-24 -183l-482 -2l-96 97h-14zM59 0l449 2l20 154l-243 -4l397 1128h-449l-18 -154h244z" />
<glyph unicode="{" horiz-adv-x="722" d="M25 590l159 104q10 74 21.5 147.5t21.5 151.5t21.5 157t21.5 153l332 -3l-2 -12l98 -96l-26 -184h-133l-54 -394q-35 -16 -64.5 -36.5t-64.5 -42.5q-23 -16 -47 -33t-65 -39q27 -39 63.5 -85t71.5 -85q10 -10 22.5 -24.5t22.5 -24.5v-15q0 -10 -3 -30.5t-9 -67.5 q-4 -37 -11.5 -85t-17.5 -120h20l-2 -10l99 -98l-25 -180h-315l-97 96h-12l96 680q-29 39 -62.5 89t-59.5 87zM53 584l115 -164l-94 -666h286l21 152h-129q20 162 32.5 249t17.5 128t5 49v8l-41 45q-25 29 -51.5 61.5t-52 65.5t-41.5 59q78 45 133 85t115 69l55 399h133 l23 156l-291 2l-84 -600z" />
<glyph unicode="|" horiz-adv-x="569" d="M20 -350l234 1650h199q-2 -4 -2 -10l98 -98q-4 -25 -9 -56.5t-12.5 -85t-17.5 -134t-25 -203.5q-18 -141 -40.5 -289t-45.5 -305q-20 -135 -41.5 -277.5t-42.5 -287.5h-186l-96 96h-13zM43 -330h158q45 313 89 601t79 546q14 123 24 202t17.5 129t11.5 78.5t8 53.5h-158z " />
<glyph unicode="}" horiz-adv-x="733" d="M27 -266l24 192h125q29 190 40 280.5t13 119.5q0 2 1 3t1 3q6 25 17 26l14 15q8 8 16.5 15t16.5 13q41 35 92 79t90 83q-16 14 -34.5 27.5t-45.5 30.5l-86 84q-4 4 -10 7t-12 7l43 295h-10l-97 96h-12l25 197l331 2l-2 -13l99 -96l-84 -588q10 -6 18 -13t16 -11l-4 -4 l99 -99l-166 -172q-23 -166 -47.5 -338t-46.5 -337h-316l-96 96h-12zM49 -246h287l92 668l160 166l-125 98l84 602l-291 -2l-20 -156h133l-58 -401q51 -29 95.5 -68.5t109.5 -85.5q-25 -29 -60.5 -62.5t-73.5 -66t-73 -61.5t-55 -47q-2 0 -2 -7t-5 -47t-16.5 -128 t-35.5 -250h-125z" />
<glyph unicode="~" horiz-adv-x="716" d="M39 489l37 261q10 82 31.5 139t60.5 69h225l-2 -12l45 -43l8 55h93q18 0 24 -5t10 -21l88 -88q2 -4 11 -25q0 -2 6 -26l-8 -72l-39 -295q2 -18 -16.5 -41t-45 -40t-56.5 -27.5t-52 -6.5h-123l-55 56l-7 -43q-2 -4 -3 -13.5t-1 -11.5q-23 4 -51.5 17.5t-48.5 33.5l-78 76 q-45 27 -53 63zM59 492q6 -29 39 -48.5t56 -23.5l4 8l24 184l-28 -4l22 144h119l-45 -324h108q20 -4 47 5t51.5 23.5t41 33t14.5 36.5l39 299l8 70q-6 20 -8 28.5t-4 11.5t-6 3h-15h-63l-29 -186h31l-21 -140h-118l45 326h-197q-31 -10 -50.5 -61.5t-27.5 -128.5z" />
<glyph unicode="&#xa1;" horiz-adv-x="526" d="M25 -360q2 16 6 47.5t8 60.5q8 49 19.5 137t29.5 240q16 131 29.5 227.5t25.5 177.5h205l-2 -12l98 -96l-125 -879h-186l-96 97h-12zM47 -340h158l121 850h-164q-6 -41 -11.5 -82t-11.5 -87t-14 -99t-16 -119q-14 -123 -24.5 -202t-18 -129t-12.5 -78.5t-7 -53.5z M178 766q4 20 7 51t8 53q2 10 3 21.5t3 23.5q2 10 3 22.5t3 20.5l203 3l-2 -13l98 -96l-25 -182h-192l-97 96h-12zM201 786h164l20 154l-162 -2q-6 -43 -12 -80t-10 -72z" />
<glyph unicode="&#xa2;" horiz-adv-x="796" d="M29 -23l184 1323l152 -2q4 16 5 34t5 36q4 23 6 49.5t6 44.5h176l-2 -12l98 -96l-12 -101l66 -65q35 -41 44 -69.5t13 -47.5q2 -4 2 -11t2 -11l-29 -205h-186l-86 86q-23 -152 -43 -297.5t-43 -292.5h176l-2 -12l98 -97l-26 -190q-14 -88 -34.5 -123t-63.5 -35h-82 q-6 -41 -13.5 -86t-13.5 -84l-166 2l-96 97h-12l8 69h-23l-96 96h-12zM51 -2l146 2l-23 -168l137 -2l27 170h94q35 0 53.5 31.5t30.5 113.5l25 174h-158l-23 -165h-129l138 970h127l-23 -163h158l26 188q-6 16 -10 48t-43 79h-84l21 166h-135l-25 -164l-150 2z" />
<glyph unicode="&#xa3;" horiz-adv-x="1091" d="M33 -145q6 152 25.5 310.5t47.5 301.5q27 152 87.5 311.5t152.5 317.5v-2q31 63 53.5 101t42.5 69l15 18l8 16q2 2 6 12.5t6 14.5q6 -10 12.5 -17.5t10.5 -17.5l82 -80q211 -305 331.5 -628.5t159.5 -685.5l-24 -9l-99 99l-8 -4q-53 88 -99 157.5t-89 120.5 q-127 -31 -270.5 -158t-315.5 -354l-27 8l-94 94zM53 -141q346 463 602 520q125 -82 301 -377q-39 354 -155.5 672.5t-319.5 609.5q-27 -41 -56.5 -90t-59.5 -109q-186 -322 -238 -622q-62 -301 -74 -604zM356 631l95 37l24 354l53 -354l103 -25l-88 -59l26 -109l-73 90 l-58 -90v105z" />
<glyph unicode="&#xa4;" horiz-adv-x="1230" d="M37 176l78 193q4 29 8 43l4 20t4 21l78 497q-6 16 -14.5 36t-16.5 38q-12 29 -24.5 60.5t-22.5 56.5l168 94l8 -18l82 -84q8 0 15.5 -1.5t13.5 -1.5q14 0 37.5 -1t38.5 -1l389 2q8 18 16 40t19 44q2 4 5 13.5t5 13.5l170 -98l-4 -8l98 -97l-68 -164l-8 -53l-4 4v-2 q-18 -133 -37.5 -264t-38.5 -262l-8 -41q16 -41 36.5 -91t37.5 -91l-158 -88l-98 98l-6 -4q-18 33 -31 61q-111 0 -219.5 -1t-220.5 -1q-10 -31 -24.5 -64.5t-39.5 -84.5l-158 86l-88 88zM63 184l134 -73q16 35 30.5 71.5t28.5 73.5l528 2q16 -39 31.5 -77t32.5 -75l133 74 l-70 174l9 47l81 564l70 172l-133 73q-23 -53 -41 -100l-403 -2v2l-162 2h-2q-10 23 -19.5 46.5t-19.5 47.5l-133 -73l71 -179l-77 -503h2l-19 -89zM305 420l76 534h10v2h461l-80 -536h-467zM438 440h316q10 68 20 132.5t21 129.5q4 35 9 69t9 69h-317 q-14 -104 -28.5 -201.5t-29.5 -198.5zM999 958l2 7q-6 -4 -2 -7zM1112 823l4 -2q-2 0 -4 2z" />
<glyph unicode="&#xa5;" horiz-adv-x="802" d="M33 160l225 184l-4 -20l16 -15l2 53h74q2 8 2 17.5t2 17.5l-39 41q-33 -12 -65.5 -24.5t-61.5 -22.5l-98 96q-4 -2 -6 -2t-6 -2l108 817h201l-2 -12l76 -78q4 23 6 45.5t6 44.5h199l-2 -12l98 -96l-82 -631l70 -67l-17 -140h-80q-2 -6 -2 -12t-2 -12l78 -76l-8 -139h-92 q-2 -16 -5 -32.5t-6 -31.5v-2q-2 -131 -104 -170l-219 4q-12 0 -43 9.5t-59 37.5l-72 72q-31 16 -57.5 54t-30.5 104zM53 154q4 -49 22.5 -79t41 -47.5t44 -22.5t32.5 -5l215 -4q90 33 94 158l10 77h92l8 111h-86q-2 2 -2 4l15 117q2 2 2 8h80l12 111h-78l90 698h-158 l-61 -483l-137 -54l71 537h-159l-101 -764l303 115l-6 -49h-86l-2 -113h74l-16 -127v-2v2h-74l-6 -113h65l-10 -75h-129l18 143zM621 469l12 2h-12v-2z" />
<glyph unicode="&#xa6;" horiz-adv-x="569" d="M20 -350l99 710h203q0 -4 -1.5 -6t-1.5 -6l99 -96q-10 -66 -20.5 -139.5t-20.5 -141.5q-16 -98 -30.5 -205.5t-31.5 -211.5h-186l-96 96h-13zM43 -330h158q25 176 50 343t48 327h-162zM154 588l100 712h199q-2 -4 -2 -10l98 -98q-4 -25 -9 -56.5t-12.5 -85t-17.5 -134 t-25 -203.5q-8 -51 -16 -109.5t-16 -111.5h-191l-96 96h-12zM176 608h162q15 107 31 209q14 123 24 202t17.5 129t11.5 78.5t8 53.5h-158z" />
<glyph unicode="&#xa7;" horiz-adv-x="876" d="M43 -158q2 20 4 42t6 44q4 23 6 47.5t7 47.5l53 22l-31 35l-12 -6l39 278v19.5t2 17.5q0 4 1 8t1 9l20 118q2 10 3 28.5t5 29.5q2 14 4.5 26.5t4.5 26.5l92 704q20 90 75.5 136.5t127.5 58.5h225q8 -10 15 -18.5t14 -18.5l71 -72q37 -41 52.5 -97t2.5 -101 q-4 -41 -11 -89t-11 -89l-53 -23l43 -43l-41 -272v-24.5t-2 -24.5l-23 -130q-4 -25 -7 -50t-7 -50l-92 -700q-20 -88 -73.5 -134.5t-125.5 -58.5h-221l-96 96h-9q-41 43 -55 101.5t-4 105.5zM63 -164q-12 -41 1.5 -93t46.5 -87h213q66 10 115.5 55t70.5 129l92 697h-2 l16 100l23 129q2 12 2 24.5v24.5l37 248l-293 -127h-14l57 397l129 -4l-33 -244l168 74l23 174q12 41 -1.5 93.5t-45.5 86.5h-213q-66 -10 -116 -55t-71 -129l-92 -696l-16 -111l-21 -119q-2 -14 -3 -26t-1 -25l-35 -246l291 125h15l-56 -395l-129 4l33 244l-168 -74z M299 403l43 304l127 59h8l-41 -305l-129 -58h-8zM334 45l22 -25q0 14 2 21q0 10 2 14q-8 -4 -14 -6zM512 1012l25 12q2 0 4 2l-23 25q-2 -10 -3 -19.5t-3 -19.5z" />
<glyph unicode="&#xa8;" horiz-adv-x="677" d="M45 1104l25 194h204q0 -4 -1 -6t-1 -4l52 -51l8 61h205q0 -4 -1 -6t-1 -4l98 -98q-4 -20 -7 -48t-8 -50q-4 -16 -6 -40t-6 -42l-190 -2l-64 63q-4 -16 -5 -31.5t-3 -29.5l-190 -2l-97 96h-12zM68 1124l161 2q6 43 12.5 80t10.5 72h-164zM330 1124l162 2q6 43 12 80t10 72 h-164z" />
<glyph unicode="&#xa9;" horiz-adv-x="1447" d="M59 260q14 106 27.5 215t30.5 219q14 106 28.5 219t28.5 217l2 5q4 4 5 8t5 8l4 4q16 27 53.5 63.5t129.5 81.5h442l367 3q47 -31 69.5 -55.5t32.5 -43.5l64 -63q25 -25 33 -44.5t12 -35.5q4 -27 10 -33q0 -2 2 -2l-121 -876q-12 -51 -26.5 -85t-36 -53.5t-52 -27 t-75.5 -7.5h-228l-549 5q-43 0 -74.5 7t-49.5 27l-76 74q-41 16 -55.5 55t-2.5 115zM77 175q5 -32 21.5 -49t46 -22.5t70.5 -5.5l549 -4v4l227 -4q41 0 70 7.5t48 25.5t32.5 50t25.5 81l121 866q-8 10 -10 25.5t-10 36t-28.5 44t-65.5 52.5l-359 -2v2l-438 -2 q-57 -29 -89 -52.5t-49.5 -43t-26.5 -34.5t-19 -26l-113 -866q-8 -51 -3 -83zM233 258l119 866h781l-119 -866h-781zM367 279h628q14 104 28.5 205.5t29.5 205.5q10 80 20 159t21 159h-228q27 -18 37 -32.5t19 -25.5q0 -4 4 -6l67 -67q18 -18 25 -31q0 -2 10 -12l-16 -103 h-172l-72 70q-8 -59 -16.5 -115.5t-18.5 -114.5h141l-2 -10l99 -98l-17 -98q-6 -47 -23.5 -62.5t-53.5 -15.5l-353 2l-96 96h-12l92 623h-41zM438 406l336 -3q31 0 45.5 13.5t18.5 52.5l14 82h-139l-11 -76h-112l65 449l113 -2l-12 -74h141l12 84q-8 6 -13 21.5t-42 37.5 l-326 4z" />
<glyph unicode="&#xaa;" horiz-adv-x="735" d="M41 678l70 512q4 35 29.5 58.5t74.5 51.5l291 -2q37 -12 54.5 -27.5t25.5 -35.5l2 -2l78 -76q-2 2 -3 2t-4 2l7 -4q16 -16 20 -34.5t8 -45.5l-69 -495h-187l-94 94q-4 -25 -6 -48.5t-6 -45.5h-182l-97 96h-12zM63 698h154l33 267l139 18l-37 -285h158l68 482 q-4 35 -17.5 58.5t-60.5 39.5l-281 2q-41 -23 -62.5 -43t-25.5 -49zM264 1038l21 164h135l-23 -143z" />
<glyph unicode="&#xab;" horiz-adv-x="991" d="M27 455l362 499l199 2l-8 -12l47 -45l41 55l198 2l-8 -12l98 -96l-352 -502l213 -463h-184l-96 97h-11l-184 393l-16 -27l213 -463h-185l-96 97h-10zM49 453l211 -453h154l-207 453l340 483l-148 -2zM328 453l211 -453h153l-207 453l340 483l-147 -2z" />
<glyph unicode="&#xac;" horiz-adv-x="1073" d="M12 762l29 196h889l-2 -10l98 -98l-57 -391q-6 -41 -47 -58.5t-146 -17.5l-96 96h-12l22 187h-569l-96 96h-13zM35 782h692l-14 -104l2 -2l-25 -176h6q84 0 118 14t38 49l55 375h-848z" />
<glyph unicode="&#xad;" horiz-adv-x="765" d="M45 430l23 162l-7 4v35h400q39 0 81 1t83 1l-2 -12l98 -97l-27 -188l-540 -2l-97 96h-12zM68 451l512 2l22 159h-141.5h-126t-127 -1t-139.5 -1l24 2z" />
<glyph unicode="&#xae;" horiz-adv-x="1447" d="M59 260q14 106 27.5 215t30.5 219q14 106 28.5 219t28.5 217l2 5q4 4 5 8t5 8l4 4q16 27 53.5 63.5t129.5 81.5h442l367 3q47 -31 69.5 -55.5t32.5 -43.5l64 -63q25 -25 33 -44.5t12 -35.5q4 -27 12 -35l-121 -876q-12 -51 -26.5 -85t-36 -53.5t-52 -27t-75.5 -7.5h-228 l-549 5q-43 0 -74.5 7t-49.5 27l-76 74q-41 16 -55.5 55t-2.5 115zM77 175q5 -32 21.5 -49t46 -22.5t70.5 -5.5l549 -4v4l227 -4q41 0 70 7.5t48 25.5t32.5 50t25.5 81l121 866q-8 10 -10 25.5t-10 36t-28.5 44t-65.5 52.5l-359 -2v2l-438 -2q-57 -29 -89 -52.5t-49.5 -43 t-26.5 -34.5t-19 -26l-113 -866q-8 -51 -3 -83zM233 258l119 866h781l-119 -866h-781zM367 279h628q14 104 28.5 205.5t29.5 205.5q10 80 20 159t21 159h-252q12 -8 19 -17.5t13 -21.5l82 -80q18 -18 25 -64l-14 -98q-2 -4 -6 -16h2q-6 -27 -16.5 -47.5t-51.5 -42.5 q-2 0 -5 -1.5t-7 -1.5q-10 -2 -24.5 -5t-37.5 -7q-4 0 -13 -2t-24 -6q31 -59 67 -127t87 -170l-150 -4l-83 82q-4 -23 -6.5 -43.5t-4.5 -38.5h-151l-97 96h-12l82 615h-49zM457 414h123l22 176l92 -176l119 4q-29 57 -49.5 96t-37.5 71.5t-31.5 61.5t-32.5 64q18 4 34.5 8 t20.5 4q29 4 47 8l27 6q35 18 43 42t16 52l14 97q-4 39 -24.5 56t-77.5 22l-225 -2zM629 793l16 141h103l-19 -123z" />
<glyph unicode="&#xb0;" horiz-adv-x="720" d="M48 867q-3 32 3 69q0 18 4 29v4l31 219l4 4l4 8q4 25 18.5 58.5t57.5 48.5h324q33 0 50 -12.5t25 -28.5l86 -86q18 -18 18.5 -46t-3.5 -53q0 -4 -1 -6t-1 -6l-50 -274q-6 -35 -22 -51.5t-61 -16.5h-324q-29 0 -43 14l-86 84q-31 10 -34 42zM70 871.5q2 -27.5 39 -27.5 h323q37 0 51.5 13t18.5 42l49 275q2 16 5 35.5t0 37t-17.5 28.5t-44.5 11h-318q-25 -8 -36 -25.5t-17 -36t-9 -33.5t-8 -17l-34 -240q-4 -35 -2 -62.5zM72 934v6l2 16q-2 -6 -2 -22zM242 956l34 218h111l-41 -218h-104z" />
<glyph unicode="&#xb1;" horiz-adv-x="1026" d="M27 -6l26 207q20 0 43 -1t45 -1h80l123 2q4 31 9 62.5t9 60.5q0 10 5 26h-160l-96 96h-13l29 199l281 2q4 33 10 71t12 73t11 72.5t10 70.5h202q-2 -4 -2 -10l99 -99q-6 -37 -12.5 -81t-10.5 -78q-4 -16 -4 -21h27q37 -2 75.5 -2h73.5l-2 -12l98 -96l-26 -185h-285 q-8 -45 -13 -81t-12 -74h179l-2 -13l98 -96l-27 -188h-772l-96 96h-12zM49 14h744l22 160h-146.5t-142.5 2v6q10 78 20.5 143.5t22.5 141.5q84 2 147.5 1t137.5 -1l23 156q0 2 -1.5 2t-1.5 2h-282q10 72 19.5 143.5t19.5 142.5h-162l-41 -286l-283 -2l-24 -158h285l-41 -287 h4l-2 -2q-74 0 -147 1t-148 1z" />
<glyph unicode="&#xb2;" horiz-adv-x="755" d="M41 662l43 282q0 18 11 34.5t28 29.5l6 6q12 8 25.5 15t29.5 11l-69 74h-13l13 100q6 45 38.5 63.5t65.5 22.5v5h252q117 0 139 -64l78 -78q35 -35 17 -98q-8 -33 -15.5 -68.5t-15.5 -68.5q-6 -41 -28.5 -60.5t-63.5 -29.5l84 -82l-29 -185l-487 -6l-97 97h-12zM63 682 l459 6l25 156h-297l14 100l172 4q59 4 87 22.5t34 63.5l31 137q35 113 -117 113h-246q2 0 4 -1t4 -1q-25 -2 -58.5 -15.5t-39.5 -54.5l-10 -77h158l18 75l137 2l-35 -174h-120q-23 0 -54.5 -5t-60.5 -16t-47.5 -28.5t-16.5 -42.5zM336 1171l59 -59l-59 62v-3z" />
<glyph unicode="&#xb3;" horiz-adv-x="739" d="M43 676v8q0 2 1 4t1 6l14 107l179 39l-5 4q-8 -4 -12 -4l8 57l-32 -8l-99 96l-12 -2l27 193q0 25 13 44t31.5 34.5t37 25.5t30.5 12l199 2q78 -4 111.5 -27.5t64.5 -68.5l59 -59q10 -10 21.5 -25.5t21.5 -32.5l-38 -239q-10 -61 -20.5 -126t-20.5 -126q-18 -49 -77 -75 t-136 -32l-209 -4q-20 10 -35 25l-74 74q-41 23 -47 45t-2 53zM61 636q2 -11 10.5 -20.5t28.5 -19.5l205 4q74 6 129 29.5t72 68.5l41 248h2l37 234q-29 45 -58.5 67.5t-103.5 26.5l-193 -2q-10 -2 -27.5 -9.5t-33.5 -19.5t-27.5 -28.5t-9.5 -36.5l-22 -168l163 41l23 125 l115 4l-21 -148l-125 -41l-18 -119l127 46l-29 -222h-123l19 123l-164 -37l-12 -90q-2 -18 -4.5 -31.5t-0.5 -24.5z" />
<glyph unicode="&#xb4;" horiz-adv-x="559" d="M27 1098l186 280h195l28 -28q-2 -2 -2 -3t-2 -4l98 -96q-23 -35 -46 -69.5t-42 -63.5q-20 -29 -39.5 -58.5t-35.5 -54.5h-228l-96 97h-16zM63 1118h193q31 47 68.5 102.5t85.5 127.5l-11 10h-176z" />
<glyph unicode="&#xb5;" horiz-adv-x="827" d="M37 -254q0 16 2 33.5t6 34.5v-2q8 47 15.5 97t17.5 99q8 49 16 96.5t17 96.5q16 109 32.5 228.5t32.5 229.5q10 74 21.5 154t21.5 152h205q-2 -4 -2 -11l63 -65q4 20 6.5 39.5t6.5 36.5h200l-2 -13l99 -96l-97 -682l-18 -133q-14 -88 -34.5 -123t-63.5 -35l-131 2l16 -16 l166 -184q-18 -55 -47 -86t-57.5 -46.5t-53 -18.5t-35.5 -3l-223 -2q-25 12 -39 27l-76 75q-66 35 -65 115zM66 -190q-31 -125 51 -164l221 2q10 0 32.5 3t48 16.5t52.5 41t43 76.5l-139 154l-19 -136l-131 -2l29 201l225 -2q35 0 53.5 31.5t30.5 113.5l19 134h2l92 665 h-160q-18 -123 -44 -313.5t-64 -476.5h-2l4 -2h-123q37 258 65.5 453.5t48.5 338.5h-163l-107 -745v2z" />
<glyph unicode="&#xb6;" horiz-adv-x="1067" d="M39 584l104 725h399t404 -2l-2 -13l98 -96l-26 -188h-117q-35 -260 -71.5 -513t-75.5 -522q-16 -100 -30.5 -207.5t-31.5 -211.5h-196l-78 77q-4 -20 -5 -40.5t-5 -38.5h-187l-96 96h-12l122 837h-86l-96 97h-12zM61 604h209l-137 -934h158q12 86 23.5 168t23.5 162h6 q2 12 6 29.5t10.5 58.5t16.5 112.5t27.5 193.5t42 300t59.5 432h2l-4 2l121 -2l-217 -1454h167q55 383 107.5 740.5t101.5 713.5h117l23 160q-197 2 -384.5 2h-377.5z" />
<glyph unicode="&#xb7;" horiz-adv-x="403" d="M39 600l24 195h205q0 -4 -1 -6.5t-1 -4.5l99 -98q-4 -20 -7.5 -48t-7.5 -50q-4 -16 -6 -40t-6 -42l-191 -2l-96 96h-12zM61 621l162 2q6 43 12.5 79.5t10.5 71.5h-164z" />
<glyph unicode="&#xb8;" horiz-adv-x="528" d="M29 -168h145q4 23 7 48.5t7 47.5q6 51 11 92h194l-2 -12l98 -96l-24 -209q-12 -51 -26.5 -85t-36 -53.5t-52.5 -26.5t-76 -7l-137 2l-96 96h-12v203zM49 -188v-162l123 -2q41 0 69.5 7t48 25.5t33 50t25.5 81.5l23 188h-154l-22 -188h-146z" />
<glyph unicode="&#xb9;" horiz-adv-x="524" d="M29 1092l26 208h334l-2 -12l98 -96l-79 -621h-183l-96 97h-12l43 327h-21l-96 97h-12zM51 1112h144l-58 -424h154l76 592h-293z" />
<glyph unicode="&#xba;" horiz-adv-x="708" d="M43 752q0 16 1 30.5t3 30.5v18.5t4 18.5l31 291q4 4 4 14q0 2 1 4t1 4q2 16 6 37t13.5 41.5t22.5 37.5t36 28h315q57 0 74 -45l84 -82q23 -23 21.5 -60t-5.5 -73q0 -4 -1 -9.5t-1 -9.5l-47 -369q-4 -45 -21.5 -66.5t-62.5 -21.5h-315q-25 0 -39 15l-86 84q-23 6 -31 28.5 t-8 53.5zM66 726q2 -38 38 -38h316q37 0 51 18.5t18 57.5l48 369q2 23 5 49t0 49.5t-16.5 39t-44.5 15.5h-311q-25 -10 -36 -33.5t-17 -49t-8.5 -46t-6.5 -24.5l-34 -322q-4 -47 -2 -85zM68 811v8l2 23q-2 -10 -2 -31zM233 842l35 291h109l-41 -291h-103z" />
<glyph unicode="&#xbb;" horiz-adv-x="989" d="M31 956l196 -2l21 -30l80 -78l317 -440l21 43q-41 59 -85 120.5t-89 124.5t-93.5 133t-89.5 129l197 -2l20 -30l80 -78l359 -494l-220 -469h-184l-65 66l-29 -66h-184l-97 97h-16l217 469q-41 59 -85 120.5t-89 124.5t-93 133t-89 129zM70 936l340 -483l-207 -453h153 l211 453l-350 481zM348 936l340 -483l-207 -453h154l211 453l-350 481z" />
<glyph unicode="&#xbc;" horiz-adv-x="1304" d="M45 1092l27 208h334l-3 -12l99 -96l-53 -410l241 523l203 2l-6 -13l98 -96q-6 -16 -20.5 -46t-26.5 -54q-23 -47 -65 -137.5t-107 -247.5q-14 -29 -25.5 -53.5t-21.5 -47.5l407 -2l-2 -12l99 -96l-9 -80l-22 -158l82 -80l-27 -180h-90q-4 -27 -10 -56.5t-10 -53.5 l-189 -3l-96 97h-12l2 16h-154l-96 96h-12l14 111q4 41 10 85t12 89q-4 -8 -7 -15.5t-7 -13.5q-39 -84 -91 -194.5t-124 -272.5l-192 -2l-97 97h-16l270 587h-112l-97 97h-12l43 327h-20l-97 97h-12zM68 1112h143l-57 -424h153l76 592h-293zM115 4l161 2q47 104 83 181 t65 139.5t53.5 115t50 108.5t55 120.5t68.5 150.5q53 125 88 204t58.5 129t38 79t24.5 53l-158 -2zM602 121l277 2l-17 -115l160 2l20 111h91l22 151h-92l35 254h2l4 64l-438 2l-4 -35l-48 -348zM791 274l22 166h100l-14 -166h-108z" />
<glyph unicode="&#xbd;" horiz-adv-x="1282" d="M45 1092l27 208h334l-3 -12l99 -96l-53 -410l241 523l203 2l-6 -13l98 -96q-6 -16 -20.5 -46t-26.5 -54q-23 -47 -65 -137.5t-107 -247.5q-14 -29 -25.5 -53.5t-21.5 -49.5q8 4 16 5t17 3v5h252q117 0 139 -64l78 -78q35 -35 16 -98q-8 -33 -15.5 -68.5t-15.5 -68.5 q-6 -41 -28.5 -60.5t-63.5 -29.5l84 -82l-29 -185l-487 -6l-96 97h-13l43 282q0 18 11.5 34.5t27.5 29.5l7 6q12 8 25 15t30 11l-70 74h-10q-10 -20 -18.5 -38.5t-16.5 -37.5q-39 -84 -91 -194.5t-124 -272.5l-192 -2l-97 97h-16l270 587h-112l-97 97h-12l43 327h-20l-97 97 h-12zM68 1112h143l-57 -424h153l76 592h-293zM115 4l161 2q47 104 83 181t65 139.5t53.5 115t50 108.5t55 120.5t68.5 150.5q53 125 88 204t58.5 129t38 79t24.5 53l-158 -2zM596 0l459 6l24 156h-297l15 100l172 4q59 4 86.5 22.5t34.5 63.5l30 137q35 113 -116 113h-246 q2 0 4 -1t4 -1q-25 -2 -58.5 -15.5t-39.5 -54.5l-11 -77h158l19 75l137 2l-35 -174h-121q-23 0 -54.5 -5t-60 -16t-47 -28.5t-16.5 -42.5zM868 489l60 -59l-60 62v-3z" />
<glyph unicode="&#xbe;" horiz-adv-x="1456" d="M43 680v8q0 2 1 4t1 6l14 107l179 39l-5 4q-8 -4 -12 -4l8 57l-32 -8l-99 96l-12 -2l27 193q0 25 13 44t31.5 34.5t37 25.5t30.5 12l199 2q78 -4 111.5 -27.5t64.5 -68.5l59 -59q10 -10 21.5 -25.5t21.5 -32.5l-20 -124l158 344l202 2l-6 -13l99 -96q-6 -16 -20.5 -46 t-27.5 -54q-23 -47 -64.5 -137.5t-107.5 -247.5q-14 -29 -25 -53.5t-22 -47.5l408 -2l-2 -12l98 -96l-8 -80l-23 -158l82 -80l-26 -180h-90q-4 -27 -10.5 -56.5t-10.5 -53.5l-188 -3l-97 97h-12l2 16h-153l-97 96h-12l14 111q4 41 10.5 85t12.5 89q-4 -8 -7 -15.5t-7 -13.5 q-39 -84 -91.5 -194.5t-123.5 -272.5l-193 -2l-96 97h-17l234 510q-14 -4 -27.5 -4.5t-27.5 -2.5l-209 -4q-20 10 -35 25l-74 74q-41 23 -47 45t-2 53zM61 640q2 -11 10.5 -20.5t28.5 -19.5l205 4q74 6 129 29.5t72 68.5l41 248h2l37 234q-29 45 -58.5 67.5t-103.5 26.5 l-193 -2q-10 -2 -27.5 -9t-33.5 -19.5t-27.5 -29t-9.5 -36.5l-22 -168l163 41l23 125l115 4l-21 -148l-125 -41l-18 -118l127 45l-29 -222h-123l19 123l-164 -37l-12 -90q-2 -18 -4.5 -31.5t-0.5 -24.5zM264 4l162 2q47 104 83 181t64.5 139.5t53 115t50 108.5t55.5 120.5 t69 150.5q53 125 88 204t58.5 129t37.5 79t25 53l-158 -2zM752 121l276 2l-16 -115l159 2l21 111h90l23 151h-93l35 254h2l4 64l-438 2l-4 -35l-47 -348zM940 274l23 166h100l-14 -166h-109z" />
<glyph unicode="&#xbf;" horiz-adv-x="673" d="M51 -154v-2q10 82 21.5 165t23.5 169q10 84 22.5 172t22.5 170h207l-2 -10l98 -98l-47 -320l-14 -90l166 -2l-2 -10l98 -99l-14 -165q-8 -53 -29.5 -98.5t-62.5 -84.5l-316 4q-6 4 -16 15l-82 82h-6q-39 29 -61.5 81t-6.5 121zM72 -158q-14 -63 5 -109t50 -69l303 -4 q39 35 57.5 78t26.5 92l12 150l-151 4l-19 -154l-131 2l56 365l45 303h-166zM180 762q4 20 7 51t8 53q2 10 3 21.5t3 23.5q2 10 3 22.5t3 20.5l203 2l-2 -12l98 -96l-25 -182h-192l-96 96h-13zM203 782h164l20 154l-162 -2q-6 -43 -12 -80t-10 -72z" />
<glyph unicode="&#xc0;" horiz-adv-x="788" d="M27 -20l149 1079q8 59 32.5 119.5t76.5 113.5l299 2q33 -25 49 -55l76 -74q37 -37 43 -88t4 -121l-148 -1073h-186l-90 90q-4 -23 -5 -45t-5 -45h-187l-96 97h-12zM49 0h158l78 573l139 52l-88 -625h158l145 1061q2 74 -7 127t-57 86l-282 -2q-45 -47 -66.5 -101.5 t-29.5 -113.5zM193 1667l28 29h195l16 -25l84 -84l178 -268h-227l-96 96h-11q-12 23 -30.5 50.5t-28.5 41.5q-4 4 -8 11.5t-8 11.5q-18 29 -44 65.5t-48 71.5zM219 1665q47 -72 85 -127t69 -102h192l-159 239h-177zM309 739l51 377h132l-48 -328zM698 1174l4 -5z" />
<glyph unicode="&#xc1;" horiz-adv-x="827" d="M25 -20l149 1079q8 59 32.5 119.5t76.5 113.5l299 2q33 -25 49 -55l76 -74q37 -37 43 -88t4 -121l-148 -1073h-186l-90 90q-4 -23 -5 -45t-6 -45h-186l-96 97h-12zM47 0h158l78 573l139 52l-88 -625h158l145 1061q2 74 -7 127t-57 86l-282 -2q-45 -47 -66.5 -101.5 t-29.5 -113.5zM291 1415l186 281h195l28 -29q-2 -2 -2 -3t-2 -3l99 -96q-23 -35 -46.5 -70t-41.5 -63q-20 -29 -40 -59l-36 -54h-228l-96 96h-16zM307 739l51 377h131l-47 -328zM328 1436h192q31 47 69 102t85 127l-10 10h-177z" />
<glyph unicode="&#xc2;" horiz-adv-x="880" d="M27 -20l149 1079q8 59 32.5 119.5t76.5 113.5l299 2q33 -25 49 -55l76 -74q37 -37 43 -88t4 -121l-148 -1073h-186l-90 90q-4 -23 -5 -45t-5 -45h-187l-96 97h-12zM49 0h158l78 573l139 52l-88 -625h158l145 1061q2 74 -7 127t-57 86l-282 -2q-45 -47 -66.5 -101.5 t-29.5 -113.5zM221 1559q8 6 18.5 13t22.5 17v6l2 -4q41 33 95.5 74t103.5 76q18 10 37 26q8 6 17 13.5t15 11.5l226 -203l-2 -8l98 -96l-23 -182l-225 155l-264 -160l-96 97l-15 -9l23 150v10l-10 13h-23zM258 1430l248 149l211 -147l20 149l-205 184q-86 -61 -148 -106 t-108 -80v-4l7 6l-2 -10l-2 -8v-4v-3l-5 -20zM309 739l51 377h132l-48 -328zM698 1174l4 -5z" />
<glyph unicode="&#xc3;" horiz-adv-x="894" d="M29 -20l149 1079q8 59 33 119.5t76 113.5l299 2q33 -25 49 -55l76 -74q37 -37 43 -88t4 -121l-148 -1073h-186l-90 90q-4 -23 -5 -45t-5 -45h-187l-96 97h-12zM51 0h158l78 573l139 52l-88 -625h158l145 1061q2 74 -7 127t-56 86l-283 -2q-45 -47 -66.5 -101.5 t-29.5 -113.5zM250 1473l20 143q10 49 21.5 77.5t56.5 35.5l268 -3l-4 -12l11 -8l6 23h119q0 -4 2 -9q2 -4 3 -7t5 -7l88 -86q2 -6 6 -12q4 -4 7 -11.5t7 -11.5l-10 -39q-4 -39 -11 -75.5t-11 -75.5q-2 -23 -35 -46.5t-78 -19.5h-209l-27 25l-10 -29h-43q-39 4 -57 23 l-80 79q-33 12 -45 46zM270 1477q12 -33 60 -35h32l35 96h-20l10 76h88l-47 -168h193q41 -4 70.5 13.5t25.5 35.5l22 156l9 37q-12 20 -13 20h-20h-68l-29 -94h27l-10 -76h-90l45 168l-240 2q-33 -4 -42 -28.5t-17 -65.5zM311 739l51 377h132l-48 -328z" />
<glyph unicode="&#xc4;" horiz-adv-x="864" d="M29 -20l149 1079q8 59 33 119.5t76 113.5l299 2q33 -25 49 -55l76 -74q37 -37 43 -88t4 -121l-148 -1073h-186l-90 90q-4 -23 -5 -45t-5 -45h-187l-96 97h-12zM51 0h158l78 573l139 52l-88 -625h158l145 1061q2 74 -7 127t-56 86l-283 -2q-45 -47 -66.5 -101.5 t-29.5 -113.5zM246 1421l24 195h205q0 -4 -1 -6t-1 -4l51 -52l8 62h205q0 -4 -1 -6t-1 -4l99 -99q-4 -20 -7.5 -47.5t-7.5 -50.5q-4 -16 -6 -39.5t-6 -42.5l-191 -2l-63 64q-4 -16 -5 -32t-3 -30l-191 -2l-96 96h-12zM268 1442l162 2q6 43 12.5 80t10.5 71h-164zM311 739 l51 377h132l-48 -328zM530 1442l162 2q6 43 12.5 80t10.5 71h-164z" />
<glyph unicode="&#xc5;" horiz-adv-x="864" d="M31 -20l149 1079q4 27 11.5 56.5t17.5 58.5q-10 16 -9 41t5 45q0 8 2 14l33 235l4 4l4 9q4 25 18.5 58.5t57.5 47.5h323q33 0 50.5 -12t25.5 -29l86 -86q18 -18 18 -46t-4 -52q0 -4 -1 -6t-1 -6l-49 -275q-6 -33 -16 -45q4 -25 4 -52.5v-62.5l-148 -1073h-186l-90 90 q-4 -23 -5 -45t-5 -45h-187l-96 97h-12zM53 0h158l78 573l139 52l-88 -625h158l145 1061q0 35 -1 63.5t-5 53.5q12 12 18 43l50 274q2 16 5 35.5t0 37t-17.5 29t-45.5 11.5h-317q-25 -8 -36 -25.5t-17.5 -36t-9.5 -34t-7 -17.5l-35 -240q-4 -25 -4 -47t10 -32 q-25 -59 -30 -119zM225 1262l2 16q-2 -4 -2 -16zM313 739l52 377h131l-47 -328zM395 1278l35 217h111l-41 -217h-105z" />
<glyph unicode="&#xc6;" horiz-adv-x="1134" d="M39 -20l149 1079q8 59 33 119.5t76 113.5l305 2q2 -12 4 -12q37 12 92 18l303 5l-2 -13l99 -96l-25 -182h-287q-8 -51 -15 -97.5t-13 -93.5q31 10 61.5 20.5t59.5 20.5l4 -16l94 -94l39 -176l-305 -105q-10 -78 -22.5 -150.5t-22.5 -146.5h178l-2 -12l98 -96l-25 -181 l-307 -4h-174l-90 90q-4 -23 -6 -45t-6 -45h-185l-96 97h-12zM61 0h156l80 573l139 52l-88 -625h158v4h295l20 152h-286l59 430l303 104l-33 148l-246 -84l54 376h286l21 154l-279 -4q-53 -6 -94 -23q-4 4 -9 8.5t-9 8.5l-283 -2q-45 -47 -66.5 -101.5t-29.5 -113.5z M322 739l51 377h131l-47 -328z" />
<glyph unicode="&#xc7;" horiz-adv-x="808" d="M35 -168h145q0 25 6 49h-34l-97 96h-12l184 1323l400 -4q8 -10 13 -18t11 -16l2 -2l74 -72q35 -41 44 -69.5t13 -47.5q2 -4 2 -11t2 -11l-28 -205h-187l-86 86q-23 -152 -43 -297.5t-43 -292.5h177l-3 -12l99 -97l-27 -190q-14 -88 -34.5 -123t-63.5 -35h-55 q-4 -43 -11.5 -91t-11.5 -89q-12 -51 -26.5 -85t-36 -53.5t-52 -26.5t-75.5 -7l-138 2l-96 96h-12v203zM55 -188v-162l123 -2q41 0 69.5 7t48 25.5t33 50t25.5 81.5l23 188h69q35 0 53.5 31.5t30.5 113.5l25 174h-158l-22 -165h-129l137 970h127l-23 -163h158l27 188 q-6 16 -10.5 48t-43.5 79l-372 4l-180 -1282l157 2l-22 -188h-146z" />
<glyph unicode="&#xc8;" horiz-adv-x="813" d="M25 -20l151 1105q6 45 17.5 82t35 63.5t61.5 43t99 22.5l303 4l-2 -12l98 -96l-24 -182h-287q-8 -51 -15 -97.5t-13 -93.5q31 10 61.5 20.5t58.5 20.5l4 -16l95 -94l39 -177l-306 -104q-10 -78 -22 -150.5t-23 -146.5h179l-3 -12l99 -97l-25 -180h-473l-96 97h-12zM47 0 h445l20 152h-287l60 430l303 104l-33 148l-246 -84l53 376h287l21 154l-279 -4q-57 -6 -92 -21.5t-55.5 -40t-30.5 -57.5t-16 -74zM274 1667l29 29h195l16 -25l84 -84l178 -268h-227l-96 96h-11q-12 23 -30.5 50.5t-28.5 41.5q-4 4 -8 11.5t-8 11.5q-18 29 -44 65.5 t-49 71.5zM301 1665q47 -72 85 -127t69 -102h192l-160 239h-176z" />
<glyph unicode="&#xc9;" horiz-adv-x="890" d="M25 -20l151 1105q6 45 17.5 82t35 63.5t61.5 43t99 22.5l303 4l-2 -12l98 -96l-24 -182h-287q-8 -51 -15 -97.5t-13 -93.5q31 10 61.5 20.5t58.5 20.5l4 -16l95 -94l39 -177l-306 -104q-10 -78 -22 -150.5t-23 -146.5h179l-3 -12l99 -97l-25 -180h-473l-96 97h-12zM47 0 h445l20 152h-287l60 430l303 104l-33 148l-246 -84l53 376h287l21 154l-279 -4q-57 -6 -92 -21.5t-55.5 -40t-30.5 -57.5t-16 -74zM362 1415l187 281h194l29 -29q-2 -2 -2 -3t-2 -3l98 -96l-46 -70t-42 -63q-20 -29 -39.5 -59t-36.5 -54h-227l-96 96h-17zM399 1436h193 q31 47 68.5 102t84.5 127l-10 10h-176z" />
<glyph unicode="&#xca;" horiz-adv-x="860" d="M27 -20l151 1105q6 45 17.5 82t35 63.5t61.5 43t99 22.5l303 4l-2 -12l99 -96l-25 -182h-287q-8 -51 -15 -97.5t-13 -93.5q31 10 61.5 20.5t58.5 20.5l4 -16l95 -94l39 -177l-306 -104q-10 -78 -22 -150.5t-23 -146.5h179l-2 -12l98 -97l-25 -180h-473l-96 97h-12zM49 0 h445l20 152h-287l60 430l303 104l-33 148l-246 -84l54 376h286l21 154l-279 -4q-57 -6 -92 -21.5t-55.5 -40t-30.5 -57.5t-16 -74zM205 1546l18 13.5t23 17.5v6l2 -4q41 33 95 74t103 76q18 10 37 26q8 6 17.5 13.5t15.5 11.5l225 -203l-2 -8l99 -96l-23 -183l-225 156 l-264 -160l-97 96l-14 -8l23 150v10l-11 12h-22zM242 1417l247 150l211 -148l21 150l-205 184q-86 -61 -148.5 -106t-107.5 -80v-4l6 6l-2 -10l-2 -9v-4v-2l-4 -20z" />
<glyph unicode="&#xcb;" horiz-adv-x="860" d="M31 -20l151 1105q6 45 17.5 82t35 63.5t61.5 43t99 22.5l303 4l-2 -12l99 -96l-25 -182h-287q-8 -51 -15 -97.5t-13 -93.5q31 10 61.5 20.5t58.5 20.5l5 -16l94 -94l39 -177l-305 -104q-10 -78 -22.5 -150.5t-23.5 -146.5h179l-2 -12l98 -97l-25 -180h-473l-96 97h-12z M53 0h445l20 152h-287l60 430l303 104l-33 148l-246 -84l54 376h286l21 154l-279 -4q-57 -6 -92 -21.5t-55.5 -40t-30.5 -57.5t-16 -74zM244 1421l24 195h205q0 -4 -1 -6t-1 -4l51 -52l8 62h205q0 -4 -1 -6t-1 -4l98 -99q-4 -20 -7 -47.5t-7 -50.5q-4 -16 -6 -39.5t-6 -42.5 l-191 -2l-63 64q-4 -16 -5 -32t-3 -30l-191 -2l-96 96h-12zM266 1442l162 2q6 43 12 80t11 71h-164zM528 1442l162 2q6 43 12.5 80t10.5 71h-164z" />
<glyph unicode="&#xcc;" horiz-adv-x="573" d="M33 -20l184 1320h199q-2 -4 -2 -10l98 -98q-4 -25 -9 -56.5t-12.5 -85t-17.5 -134t-24 -203.5q-4 -23 -5.5 -41.5t-5.5 -36.5q-14 -100 -24.5 -176t-22.5 -156t-25.5 -178t-33.5 -240l-191 -2l-96 97h-12zM55 0l162 2q14 104 25.5 181t20.5 139.5t16.5 114.5t15.5 108.5 t16 121t21 150.5q14 123 24.5 202t17.5 129t11 78.5t8 53.5h-157zM55 1667l29 29h195l16 -25l84 -84l178 -268h-227l-97 96h-10q-12 23 -30.5 50.5t-28.5 41.5q-4 4 -8 11.5t-9 11.5q-18 29 -43.5 65.5t-48.5 71.5zM82 1665q47 -72 85 -127t69 -102h192l-160 239h-176z" />
<glyph unicode="&#xcd;" horiz-adv-x="704" d="M25 -20l184 1320h199q-2 -4 -2 -10l98 -98q-4 -25 -9.5 -56.5t-12.5 -85t-17 -134t-25 -203.5q-4 -23 -5 -41.5t-5 -36.5q-14 -100 -24.5 -176t-22.5 -156t-25.5 -178t-33.5 -240l-191 -2l-96 97h-12zM47 0l162 2q14 104 25.5 181t20.5 139.5t16.5 114.5t15.5 108.5 t16 121t21 150.5q14 123 24 202t17.5 129t11.5 78.5t8 53.5h-158zM190 1415l187 281h194l29 -29q-2 -2 -2 -3t-2 -3l98 -96l-46 -70t-42 -63q-20 -29 -39.5 -59t-36.5 -54h-227l-96 96h-17zM227 1436h193q31 47 68.5 102t84.5 127l-10 10h-176z" />
<glyph unicode="&#xce;" horiz-adv-x="718" d="M33 -20l184 1320h199q-2 -4 -2 -10l98 -98q-4 -25 -9 -56.5t-12.5 -85t-17.5 -134t-24 -203.5q-4 -23 -5.5 -41.5t-5.5 -36.5q-14 -100 -24.5 -176t-22.5 -156t-25.5 -178t-33.5 -240l-191 -2l-96 97h-12zM55 0l162 2q14 104 25.5 181t20.5 139.5t16.5 114.5t15.5 108.5 t16 121t21 150.5q14 123 24.5 202t17.5 129t11 78.5t8 53.5h-157zM78 1559q8 6 18 13t23 17v6l2 -4q41 33 95 74t103 76q18 10 37 26q8 6 17.5 13.5t15.5 11.5l225 -203l-2 -8l99 -96l-23 -182l-225 155l-264 -160l-97 97l-14 -9l23 150v10l-11 13h-22zM115 1430l247 149 l211 -147l21 149l-205 184q-86 -61 -148.5 -106t-107.5 -80v-4l6 6l-2 -10l-2 -8v-4v-3l-4 -20z" />
<glyph unicode="&#xcf;" horiz-adv-x="708" d="M39 -20l184 1320h199q-2 -4 -2 -10l98 -98q-4 -25 -9 -56.5t-12.5 -85t-17.5 -134t-24 -203.5q-4 -23 -5 -41.5t-6 -36.5q-14 -100 -24 -176t-22.5 -156t-26 -178t-33.5 -240l-191 -2l-96 97h-12zM61 0l162 2q14 104 25.5 181t21 139.5t16.5 114.5t15 108.5t16.5 121 t20.5 150.5q14 123 24.5 202t17.5 129t11 78.5t8 53.5h-157zM106 1415l25 195h205q0 -4 -1 -6t-1 -5l51 -51l8 62h205q0 -4 -1 -6t-1 -5l98 -98q-4 -20 -7 -48t-7 -50q-4 -16 -6 -40t-6 -42l-191 -2l-63 63q-4 -16 -5 -31.5t-3 -29.5l-191 -2l-96 96h-13zM129 1436l162 2 q6 43 12 79.5t10 71.5h-163zM391 1436l162 2q6 43 12 79.5t10 71.5h-163z" />
<glyph unicode="&#xd0;" horiz-adv-x="833" d="M35 588l18 166h-4l-2 41h10q8 0 20.5 1t22.5 1h64q8 59 16 122.5t19 122.5l37 258l399 -4q8 -10 13 -18t11 -16l3 -2l73 -72q35 -41 44 -69.5t14 -47.5q2 -4 2 -11t2 -11l-123 -875l-19 -133q-14 -88 -34.5 -123t-63.5 -35l-397 -2l-97 96h-12l74 531l-78 80h-12zM57 608 h103l-86 -610l381 2q35 0 53 31.5t31 113.5l18 134h2l121 870q-6 16 -10 48t-43 79l-373 4l-72 -504q-25 0 -51.5 -1t-54.5 -1zM57 774h19v2zM254 154l63 456h105l16 166h-96l49 348h127l-115 -815l-20 -155h-129z" />
<glyph unicode="&#xd1;" horiz-adv-x="876" d="M31 -20q4 25 6 51t6 49q4 25 6 47.5t6 42.5q0 2 1 3t1 3l117 828l19 133q16 92 36.5 127.5t67.5 35.5l299 -2q53 0 70 -43l82 -81q16 -16 22 -51.5t-2 -94.5l-141 -997q-4 -16 -4 -31.5t-5 -34.5q-2 -16 -5 -39.5t-7 -42.5h-190l-80 80q-4 -20 -6 -31.5t-4 -21.5 q0 -6 -1 -15.5t-1 -11.5h-185l-96 97h-12zM53 0h154q2 12 6 29.5t10 58.5t16.5 112.5t28 193.5t42 300t59.5 432h2l-4 2h122q-35 -233 -61.5 -417.5t-46 -322.5t-31.5 -234.5t-20 -153.5h162q6 43 10 74.5t8 60.5v-4l141 1002q10 82 -5 113.5t-50 31.5l-299 2 q-35 0 -53.5 -31.5t-30.5 -113.5l-18 -134h-2l-115 -827q-4 -31 -10.5 -73t-14.5 -101zM231 1473l21 143q10 49 21.5 77.5t56.5 35.5l268 -3l-4 -12l10 -8l6 23h119q0 -4 2 -9q2 -4 3 -7t5 -7l88 -86q2 -6 7 -12q4 -4 7 -11.5t7 -11.5l-10 -39q-4 -39 -11.5 -75.5 t-11.5 -75.5q-2 -23 -34.5 -46.5t-78.5 -19.5h-208l-27 25l-10 -29h-43q-39 4 -58 23l-80 79q-33 12 -45 46zM252 1477q12 -33 59 -35h33l35 96h-21l11 76h88l-47 -168h192q41 -4 70.5 13.5t25.5 35.5l23 156l8 37l-12 20h-21h-67l-29 -94h27l-11 -76h-90l45 168l-239 2 q-33 -4 -42 -28.5t-18 -65.5z" />
<glyph unicode="&#xd2;" horiz-adv-x="772" d="M29 78q0 12 1 32.5t5 39.5q2 16 4 37.5t4 31.5q2 16 4 32.5t4 33.5l113 876q4 6 12 23q8 20 25.5 49t62.5 67l166 -2v-2h150q8 -10 15 -19t11 -17l74 -72q35 -41 44 -69.5t13 -47.5q2 -4 2 -11t2 -11l-123 -875l-18 -133q-14 -88 -34.5 -123t-63.5 -35l-62 -4l-237 6 q-25 0 -43 19l-82 82q-49 12 -49 92zM55 147q-10 -82 0.5 -113.5t44.5 -31.5l238 -6v4h61q35 0 53.5 31.5t30.5 113.5l19 134h2l121 870q-6 16 -10.5 48t-43.5 79h-155v2l-144 2q-51 -45 -64 -77t-24 -48l-112 -872h2zM213 154l23 155l104 815h123l-115 -815l-20 -155h-2v-2 zM215 1667l29 29h194l17 -25l84 -84l178 -268h-228l-96 96h-10q-12 23 -30.5 50.5t-28.5 41.5q-4 4 -8.5 11.5t-8.5 11.5q-18 29 -43.5 65.5t-48.5 71.5zM242 1665q47 -72 85 -127t68 -102h193l-160 239h-176z" />
<glyph unicode="&#xd3;" horiz-adv-x="843" d="M27 78q0 12 1 32.5t5 39.5q2 16 4 37.5t4 31.5q2 16 4 32.5t4 33.5l113 876q4 6 12 23q8 20 25.5 49t62.5 67l166 -2v-2h150q8 -10 15 -19t11 -17l74 -72q35 -41 44 -69.5t13 -47.5q2 -4 2 -11t2 -11l-123 -875l-18 -133q-14 -88 -34.5 -123t-63.5 -35l-62 -4l-237 6 q-25 0 -43 19l-82 82q-49 12 -49 92zM53 33.5q10 -31.5 45 -31.5l238 -6v4h61q35 0 53.5 31.5t30.5 113.5l19 134h2l121 870q-6 16 -10.5 48t-43.5 79h-155v2l-144 2q-51 -45 -64 -77t-24 -48l-112 -872h2l-19 -136q-10 -82 0 -113.5zM211 154l22 155l105 815h123l-115 -815 l-20 -155h-2v-2zM313 1415l187 281h194l29 -29q-2 -2 -2 -3t-2 -3l98 -96l-46 -70t-42 -63q-20 -29 -39.5 -59t-36.5 -54h-227l-96 96h-17zM350 1436h193q31 47 68.5 102t84.5 127l-10 10h-176z" />
<glyph unicode="&#xd4;" horiz-adv-x="837" d="M31 78q0 12 1 32.5t5 39.5q2 16 4 37.5t4 31.5q2 16 4 32.5t4 33.5l113 876q4 6 12 23q8 20 25.5 49t62.5 67h31l-94 95l-15 -9l23 150v10l-10 13h-23q8 6 18.5 13t22.5 17v6l2 -4q41 33 95.5 74t103.5 76q18 10 37 26q8 6 17 13.5t15 11.5l226 -203l-2 -8l98 -96 l-23 -182l-225 155l-262 -158l131 -2v-2h150q8 -10 15 -19t11 -17l74 -72q35 -41 44 -69.5t13 -47.5q2 -4 2 -11t2 -11l-122 -875l-19 -133q-14 -88 -34.5 -123t-63.5 -35l-62 -4l-237 6q-25 0 -43 19l-82 82q-49 12 -49 92zM57 147q-10 -82 0.5 -113.5t44.5 -31.5l238 -6v4 h61q35 0 53.5 31.5t30.5 113.5l19 134h2l121 870q-6 16 -10.5 48t-43.5 79h-155v2l-144 2q-51 -45 -64 -77t-24 -48l-112 -872h2zM215 154l23 155l104 815h123l-115 -815l-20 -155h-2v-2zM215 1430l248 149l211 -147l20 149l-205 184q-86 -61 -148 -106t-108 -80v-4l7 6 l-2 -10l-2 -8v-4v-3l-5 -20z" />
<glyph unicode="&#xd5;" horiz-adv-x="856" d="M33 78q0 12 1 32.5t5 39.5q2 16 4 37.5t4 31.5q2 16 4 32.5t4 33.5l113 876q4 6 12 23q8 20 25.5 49t62.5 67l166 -2v-2h150q8 -10 15 -19t11 -17l74 -72q35 -41 44 -69.5t13 -47.5q2 -4 2 -11t2 -11l-122 -875l-19 -133q-14 -88 -34.5 -123t-63.5 -35l-62 -4l-237 6 q-25 0 -43 19l-82 82q-49 12 -49 92zM59 147q-10 -82 0.5 -113.5t44.5 -31.5l238 -6v4h61q35 0 53.5 31.5t30.5 113.5l19 134h2l121 870q-6 16 -10.5 48t-43.5 79h-155v2l-144 2q-51 -45 -64 -77t-24 -48l-112 -872h2zM213 1473l20 143q10 49 21.5 77.5t56.5 35.5l269 -3 l-5 -12l11 -8l6 23h119q0 -4 2 -9q2 -4 3 -7t5 -7l88 -86q2 -6 6 -12q4 -4 7 -11.5t7 -11.5l-10 -39q-4 -39 -11 -75.5t-11 -75.5q-2 -23 -35 -46.5t-78 -19.5h-209l-26 25l-11 -29h-43q-39 4 -57 23l-80 79q-33 12 -45 46zM217 154l23 155l104 815h123l-115 -815l-20 -155 h-2v-2zM233 1477q12 -33 60 -35h33l34 96h-20l10 76h88l-47 -168h193q41 -4 70.5 13.5t25.5 35.5l22 156l9 37q-12 20 -13 20h-20h-68l-28 -94h26l-10 -76h-90l45 168l-240 2q-33 -4 -42 -28.5t-17 -65.5z" />
<glyph unicode="&#xd6;" horiz-adv-x="831" d="M33 78q0 12 1 32.5t5 39.5q2 16 4 37.5t4 31.5q2 16 4 32.5t4 33.5l113 876q4 6 12 23q8 20 25.5 49t62.5 67l166 -2v-2h150q8 -10 15 -19t11 -17l74 -72q35 -41 44 -69.5t13 -47.5q2 -4 2 -11t2 -11l-122 -875l-19 -133q-14 -88 -34.5 -123t-63.5 -35l-62 -4l-237 6 q-25 0 -43 19l-82 82q-49 12 -49 92zM59 147q-10 -82 0.5 -113.5t44.5 -31.5l238 -6v4h61q35 0 53.5 31.5t30.5 113.5l19 134h2l121 870q-6 16 -10.5 48t-43.5 79h-155v2l-144 2q-51 -45 -64 -77t-24 -48l-112 -872h2zM213 1421l25 195h204q0 -4 -1 -6t-1 -4l52 -52l8 62 h205q0 -4 -1.5 -6t-1.5 -4l99 -99q-4 -20 -7 -47.5t-8 -50.5q-4 -16 -6 -39.5t-6 -42.5l-190 -2l-64 64q-4 -16 -5 -32t-3 -30l-190 -2l-97 96h-12zM217 154l23 155l104 815h123l-115 -815l-20 -155h-2v-2zM236 1442l161 2q6 43 12.5 80t10.5 71h-164zM498 1442l161 2 q6 43 12.5 80t10.5 71h-164z" />
<glyph unicode="&#xd7;" horiz-adv-x="710" d="M35 242l137 463l-20 337h208v-14l11 -10q2 4 2 11t2 13h207l-4 -12l98 -96l-107 -348q-2 -109 -4 -221.5t-4 -219.5h-182l-29 29q-8 -20 -10 -29h-195l-96 97h-14zM63 262h164l74 242l-10 -242h153l9 430l100 330h-160l-43 -166l-10 166h-168l21 -324z" />
<glyph unicode="&#xd8;" horiz-adv-x="774" d="M31 78q0 12 1 32.5t5 39.5q2 16 4 37.5t4 31.5q2 16 4 32.5t4 33.5l113 876q4 6 12 23q8 20 25.5 49t62.5 67l58 -2q4 18 5 39t5 41t7 44l5 40h199q0 -4 -1 -5t-1 -5l98 -98q-2 -10 -4 -30.5t-4 -33.5q-2 -12 -4 -22.5t-4 -22.5l57 -57q35 -41 44 -69.5t13 -47.5 q2 -4 2 -11t2 -11l-122 -875l-19 -133q-14 -88 -34.5 -123t-63.5 -35l-62 -4h-8q-2 -10 -3 -22.5t-3 -20.5q-4 -29 -10 -62.5t-10 -58.5h-187l-96 97h-12l16 120l-53 52q-45 12 -45 94zM57 147q-10 -82 0.5 -113.5t44.5 -31.5l58 -2l-25 -168h158q4 37 12 82t14 84l21 -2v4 h61q35 0 53.5 31.5t30.5 113.5l19 134h2l121 870q-6 16 -10.5 48t-43.5 79h-75q10 66 15 101.5t9 64.5h-157l-23 -164l-68 2q-51 -45 -64 -77t-24 -48l-112 -872h2zM215 154l23 155l104 815h123l-115 -815l-20 -155h-2v-2z" />
<glyph unicode="&#xd9;" horiz-adv-x="806" d="M41 150l141 1001q2 8 2 13t2 16q0 12 4 32q2 16 5.5 43t7.5 45h205q-2 -4 -2 -12l67 -69q4 18 6 29.5t4 21.5q0 4 1 8t1 8v14h197q0 -4 -1 -6t-1 -4l98 -98q-8 -53 -14 -101.5t-10 -76.5q0 -4 -1 -6t-1 -7l-117 -827l-19 -133q-14 -88 -34.5 -123t-63.5 -35l-299 2 q-33 0 -49 17l-84 84q-31 10 -43 48t-2 116zM61 147q-10 -82 5.5 -113.5t50.5 -31.5l299 -2q35 0 53 31.5t31 113.5l18 134h2l115 827q4 31 10 73t14 101h-153q-2 -12 -6 -29.5t-10.5 -58.5t-16.5 -112.5t-27.5 -193.5t-42 -300t-59.5 -432h-2l4 -2h-123q35 233 61.5 417.5 t46 322.5t32 234.5t20.5 153.5h-162q-6 -43 -10 -74.5t-8 -60.5v4zM184 1667l29 29h195l16 -25l84 -84l178 -268h-227l-97 96h-10q-12 23 -30.5 50.5t-28.5 41.5q-4 4 -8 11.5t-9 11.5q-18 29 -43.5 65.5t-48.5 71.5zM211 1665q47 -72 85 -127t69 -102h192l-160 239h-176z " />
<glyph unicode="&#xda;" horiz-adv-x="843" d="M37 150l141 1001q2 8 2 13t2 16q0 12 4 32q2 16 5.5 43t7.5 45h204q-2 -4 -2 -12l68 -69q4 18 6 29.5t4 21.5q0 4 1 8t1 8v14h197q0 -4 -1 -6t-1 -4l98 -98q-8 -53 -14 -101.5t-10 -76.5q0 -4 -1 -6t-1 -7l-117 -827l-19 -133q-14 -88 -34.5 -123t-63.5 -35l-299 2 q-33 0 -49 17l-84 84q-31 10 -43 48t-2 116zM57 147q-10 -82 5.5 -113.5t50.5 -31.5l299 -2q35 0 53 31.5t31 113.5l18 134h2l115 827q4 31 10 73t14 101h-153q-2 -12 -6 -29.5t-10.5 -58.5t-16.5 -112.5t-27.5 -193.5t-42 -300t-59.5 -432h-2l4 -2h-123q35 233 61.5 417.5 t46 322.5t32 234.5t20.5 153.5h-162q-6 -43 -10 -74.5t-8 -60.5v4zM311 1415l187 281h194l29 -29q-2 -2 -2 -3t-2 -3l98 -96q-23 -35 -46.5 -70t-41.5 -63q-20 -29 -39.5 -59t-36.5 -54h-227l-96 96h-17zM348 1436h193q31 47 68.5 102t84.5 127l-10 10h-176z" />
<glyph unicode="&#xdb;" horiz-adv-x="860" d="M41 150l141 1001q2 8 2 13t2 16q0 12 4 32q2 16 5.5 43t7.5 45h116l-94 95l-14 -9l22 150v10l-10 13h-22q8 6 18 13t23 17v6l2 -4q41 33 95 74t103 76q18 10 37 26q8 6 17.5 13.5t15.5 11.5l225 -203l-2 -8l99 -96l-23 -182l-225 155l-262 -158h84q-2 -4 -2 -12l67 -69 q4 18 6 29.5t4 21.5q0 4 1 8t1 8v14h197q0 -4 -1 -6t-1 -4l98 -98q-8 -53 -14 -101.5t-10 -76.5q0 -4 -1 -6t-1 -7l-117 -827l-19 -133q-14 -88 -34.5 -123t-63.5 -35l-299 2q-33 0 -49 17l-84 84q-31 10 -43 48t-2 116zM61 147q-10 -82 5.5 -113.5t50.5 -31.5l299 -2 q35 0 53 31.5t31 113.5l18 134h2l115 827q4 31 10 73t14 101h-153q-2 -12 -6 -29.5t-10.5 -58.5t-16.5 -112.5t-27.5 -193.5t-42 -300t-59.5 -432h-2l4 -2h-123q35 233 61.5 417.5t46 322.5t32 234.5t20.5 153.5h-162q-6 -43 -10 -74.5t-8 -60.5v4zM238 1430l247 149 l211 -147l21 149l-205 184q-86 -61 -148.5 -106t-107.5 -80v-4l6 6l-2 -10l-2 -8v-4v-3l-4 -20z" />
<glyph unicode="&#xdc;" horiz-adv-x="849" d="M43 150l141 1001q2 8 2 13t2 16q0 12 5 32q2 16 5 43t7 45h205q-2 -4 -2 -12l67 -69q4 18 6 29.5t4 21.5q0 4 1 8t1 8v14h197q0 -4 -1 -6t-1 -4l98 -98q-8 -53 -14 -101.5t-10 -76.5q0 -4 -1 -6t-1 -7l-117 -827l-19 -133q-14 -88 -34.5 -123t-63.5 -35l-299 2 q-33 0 -49 17l-84 84q-31 10 -43 48t-2 116zM63 147q-10 -82 5.5 -113.5t50.5 -31.5l299 -2q35 0 53 31.5t31 113.5l18 134h2l115 827q4 31 10 73t15 101h-154q-2 -12 -6 -29.5t-10.5 -58.5t-16.5 -112.5t-27.5 -193.5t-42 -300t-59.5 -432h-2l4 -2h-123q35 233 61.5 417.5 t46 322.5t32 234.5t20.5 153.5h-162q-6 -43 -10 -74.5t-8 -60.5v4zM231 1421l25 195h205q0 -4 -1 -6t-1 -4l51 -52l8 62h205q0 -4 -1 -6t-1 -4l98 -99q-4 -20 -7 -47.5t-7 -50.5q-4 -16 -6 -39.5t-6 -42.5l-191 -2l-63 64q-4 -16 -5.5 -32t-3.5 -30l-190 -2l-96 96h-13z M254 1442l162 2q6 43 12 80t10 71h-164zM516 1442l162 2q6 43 12 80t10 71h-163z" />
<glyph unicode="&#xdd;" horiz-adv-x="811" d="M25 160l225 184l-4 -20l78 -80l22 176q2 10 3 18t1 19q-45 -16 -89 -33.5t-85 -32.5l-98 96q-8 -4 -12 -4l108 817h201l-2 -12l76 -78q4 23 6 45.5t6 44.5h198l-2 -12l99 -96l-146 -1143q-6 -131 -104 -170l-219 4q-12 0 -43 9.5t-60 37.5l-71 72q-31 16 -57.5 54 t-30.5 104zM45 154q4 -49 22.5 -79t41 -47.5t44 -22.5t31.5 -5l215 -4q90 33 95 158l143 1126h-158l-61 -483l-137 -54l71 537h-159l-101 -764l303 115l-61 -477h-129l18 143zM274 1415l187 281h194l29 -29q-2 -2 -2 -3t-2 -3l98 -96l-46 -70t-42 -63q-20 -29 -39.5 -59 t-36.5 -54h-227l-96 96h-17zM311 1436h193q31 47 68.5 102t84.5 127l-10 10h-176z" />
<glyph unicode="&#xde;" horiz-adv-x="755" d="M33 -20l182 1325h199q0 -4 -1 -6.5t-1 -6.5l98 -96q-4 -25 -8 -60.5t-13 -84.5h13q94 -12 123 -68l77 -78q41 -41 37 -149l-30 -207q-12 -70 -28.5 -119t-66.5 -92q-14 -6 -42.5 -16.5t-65.5 -18.5q-10 -4 -26.5 -10t-33.5 -12q-23 -6 -42 -11.5t-19 -3.5l-53 -383h-191 l-96 97h-12zM55 0h162l51 371q0 2 19.5 9t44 15t45 14.5t24.5 10.5q39 8 65 17t36 14q47 41 62.5 89t27.5 113l31 207q2 86 -24 124t-99 46l-146 -2q8 57 13.5 98t10.5 70t8 49.5t5 38.5h-158zM297 565l41 309h131l-39 -266z" />
<glyph unicode="&#xdf;" horiz-adv-x="811" d="M33 -20l184 1320l320 3q94 -12 122 -70l74 -74q0 2 -1 2t-1 2l6 -6q41 -41 37 -149l-31 -207q-10 -66 -22 -110t-53 -85q10 -10 18 -24.5t16 -32.5q0 -4 3 -4l2 -2l-60 -432q-6 -70 -15 -114t-24.5 -69.5t-39 -35t-58.5 -9.5h-94l-76 76q-2 -18 -4 -36.5t-4 -39.5h-191 l-96 97h-12zM55 0h162v-2q20 156 35.5 264.5t27 183t18.5 125t12 89t9.5 74.5t10.5 85h2l41 307h131l-39 -266l-45 -14v-184q4 0 12 4q4 2 6 2l-73 -514h-35q0 -25 -1 -62t-1 -92h80q33 0 53 7t33.5 29.5t21.5 64.5t14 114l60 424q-10 29 -19.5 46t-33.5 17q47 41 62 89.5 t28 113.5l30 207q2 86 -23.5 124t-98.5 46l-299 -2zM338 819h6v2z" />
<glyph unicode="&#xe0;" horiz-adv-x="790" d="M31 -20l149 1079q8 59 33 119.5t76 113.5l299 2q33 -25 49 -55l76 -74q37 -37 43 -88t4 -121l-148 -1073h-186l-90 90q-4 -23 -5 -45t-5 -45h-187l-96 97h-12zM53 0h158l78 573l139 52l-88 -625h158l145 1061q2 74 -7 127t-56 86l-283 -2q-45 -47 -66.5 -101.5 t-29.5 -113.5zM143 1667l29 29h195l16 -25l84 -84l178 -268h-227l-96 96h-11q-12 23 -30.5 50.5t-28.5 41.5q-4 4 -8 11.5t-8 11.5q-18 29 -44 65.5t-49 71.5zM170 1665q47 -72 85 -127t69 -102h192l-160 239h-176zM313 739l52 377h131l-47 -328z" />
<glyph unicode="&#xe1;" horiz-adv-x="792" d="M25 -20l149 1079q8 59 32.5 119.5t76.5 113.5l299 2q33 -25 49 -55l76 -74q37 -37 43 -88t4 -121l-148 -1073h-186l-90 90q-4 -23 -5 -45t-6 -45h-186l-96 97h-12zM47 0h158l78 573l139 52l-88 -625h158l145 1061q2 74 -7 127t-57 86l-282 -2q-45 -47 -66.5 -101.5 t-29.5 -113.5zM238 1415l186 281h194l29 -29q-2 -2 -2 -3t-2 -3l98 -96l-46 -70t-42 -63q-20 -29 -39.5 -59t-35.5 -54h-228l-96 96h-16zM274 1436h193q31 47 68.5 102t85.5 127l-11 10h-176zM307 739l51 377h131l-47 -328z" />
<glyph unicode="&#xe2;" horiz-adv-x="833" d="M29 -20l149 1079q8 59 33 119.5t76 113.5l299 2q33 -25 49 -55l76 -74q37 -37 43 -88t4 -121l-148 -1073h-186l-90 90q-4 -23 -5 -45t-5 -45h-187l-96 97h-12zM51 0h158l78 573l139 52l-88 -625h158l145 1061q2 74 -7 127t-56 86l-283 -2q-45 -47 -66.5 -101.5 t-29.5 -113.5zM170 1559q8 6 18.5 13t22.5 17v6l2 -4q41 33 95 74t104 76q18 10 37 26q8 6 17 13.5t15 11.5l226 -203l-2 -8l98 -96l-23 -182l-225 155l-264 -160l-96 97l-15 -9l23 150v10l-10 13h-23zM207 1430l248 149l211 -147l20 149l-205 184q-86 -61 -148.5 -106 t-107.5 -80v-4l6 6l-2 -10l-2 -8v-4v-3l-4 -20zM311 739l51 377h132l-48 -328zM700 1174l5 -5z" />
<glyph unicode="&#xe3;" horiz-adv-x="847" d="M31 -20l149 1079q8 59 33 119.5t76 113.5l299 2q33 -25 49 -55l76 -74q37 -37 43 -88t4 -121l-148 -1073h-186l-90 90q-4 -23 -5 -45t-5 -45h-187l-96 97h-12zM53 0h158l78 573l139 52l-88 -625h158l145 1061q2 74 -7 127t-56 86l-283 -2q-45 -47 -66.5 -101.5 t-29.5 -113.5zM199 1473l20 143q10 49 21.5 77.5t56.5 35.5l268 -3l-4 -12l10 -8l7 23h118q0 -4 2 -9q2 -4 3 -7t6 -7l88 -86q2 -6 6 -12q4 -4 7 -11.5t7 -11.5l-10 -39q-4 -39 -11.5 -75.5t-11.5 -75.5q-2 -23 -34.5 -46.5t-77.5 -19.5h-209l-27 25l-10 -29h-43 q-39 4 -57 23l-80 79q-33 12 -45 46zM219 1477q12 -33 60 -35h32l35 96h-20l10 76h88l-47 -168h192q41 -4 71 13.5t26 35.5l22 156l8 37l-12 20h-20h-68l-29 -94h27l-10 -76h-90l45 168l-240 2q-33 -4 -42 -28.5t-17 -65.5zM313 739l52 377h131l-47 -328zM702 1174l5 -5z " />
<glyph unicode="&#xe4;" horiz-adv-x="819" d="M31 -20l149 1079q8 59 33 119.5t76 113.5l299 2q33 -25 49 -55l76 -74q37 -37 43 -88t4 -121l-148 -1073h-186l-90 90q-4 -23 -5 -45t-5 -45h-187l-96 97h-12zM53 0h158l78 573l139 52l-88 -625h158l145 1061q2 74 -7 127t-56 86l-283 -2q-45 -47 -66.5 -101.5 t-29.5 -113.5zM195 1421l24 195h205q0 -4 -1 -6t-1 -4l51 -52l8 62h205q0 -4 -1 -6t-1 -4l98 -99q-4 -20 -7 -47.5t-7 -50.5q-4 -16 -6 -39.5t-6 -42.5l-191 -2l-63 64q-4 -16 -5 -32t-3 -30l-191 -2l-96 96h-12zM217 1442l162 2q6 43 12 80t10 71h-163zM313 739l52 377h131 l-47 -328zM479 1442l162 2q6 43 12 80t11 71h-164zM702 1174l5 -5z" />
<glyph unicode="&#xe5;" horiz-adv-x="864" d="M31 -20l149 1079q4 27 11.5 56.5t17.5 58.5q-10 16 -9 41t5 45q0 8 2 14l33 235l4 4l4 9q4 25 18.5 58.5t57.5 47.5h323q33 0 50.5 -12t25.5 -29l86 -86q18 -18 18 -46t-4 -52q0 -4 -1 -6t-1 -6l-49 -275q-6 -33 -16 -45q4 -25 4 -52.5v-62.5l-148 -1073h-186l-90 90 q-4 -23 -6 -45t-6 -45h-185l-96 97h-12zM53 0h156l80 573l139 52l-88 -625h158l145 1061q0 35 -1 63.5t-5 53.5q12 12 18 43l50 274q2 16 5 35.5t0 37t-17.5 29t-45.5 11.5h-317q-25 -8 -36 -25.5t-17.5 -36t-9.5 -34t-7 -17.5l-35 -240q-4 -25 -4 -47t10 -32 q-25 -59 -30 -119zM225 1262l2 16q-2 -4 -2 -16zM313 739l52 377h131l-47 -328zM395 1278l35 217h111l-41 -217h-105z" />
<glyph unicode="&#xe6;" horiz-adv-x="1134" d="M39 -20l149 1079q8 59 33 119.5t76 113.5l305 2q2 -12 4 -12q37 12 92 18l303 5l-2 -13l99 -96l-25 -182h-287q-8 -51 -15 -97.5t-13 -93.5q31 10 61.5 20.5t59.5 20.5l4 -16l94 -94l39 -176l-305 -105q-10 -78 -22.5 -150.5t-22.5 -146.5h178l-2 -12l98 -96l-25 -181 l-307 -4h-174l-90 90q-4 -23 -6 -45t-6 -45h-185l-96 97h-12zM61 0h156l80 573l139 52l-88 -625h158v4h295l20 152h-286l59 430l303 104l-33 148l-246 -84l54 376h286l21 154l-279 -4q-53 -6 -94 -23q-4 4 -9 8.5t-9 8.5l-283 -2q-45 -47 -66.5 -101.5t-29.5 -113.5z M322 739l51 377h131l-47 -328z" />
<glyph unicode="&#xe7;" horiz-adv-x="808" d="M35 -168h145q0 25 6 49h-34l-97 96h-12l184 1323l400 -4q8 -10 13 -18t11 -16l2 -2l74 -72q35 -41 44 -69.5t13 -47.5q2 -4 2 -11t2 -11l-28 -205h-187l-86 86q-23 -152 -43 -297.5t-43 -292.5h177l-3 -12l99 -97l-27 -190q-14 -88 -34.5 -123t-63.5 -35h-55 q-4 -43 -11.5 -91t-11.5 -89q-12 -51 -26.5 -85t-36 -53.5t-52 -26.5t-75.5 -7l-138 2l-96 96h-12v203zM55 -188v-162l123 -2q41 0 69.5 7t48 25.5t33 50t25.5 81.5l23 188h69q35 0 53.5 31.5t30.5 113.5l25 174h-158l-22 -165h-129l137 970h127l-23 -163h158l27 188 q-6 16 -10.5 48t-43.5 79l-372 4l-180 -1282l157 2l-22 -188h-146z" />
<glyph unicode="&#xe8;" horiz-adv-x="813" d="M25 -20l151 1105q6 45 17.5 82t35 63.5t61.5 43t99 22.5l303 4l-2 -12l98 -96l-24 -182h-287q-8 -51 -15 -97.5t-13 -93.5q31 10 61.5 20.5t58.5 20.5l4 -16l95 -94l39 -177l-306 -104q-10 -78 -22 -150.5t-23 -146.5h179l-3 -12l99 -97l-25 -180h-473l-96 97h-12zM47 0 h445l20 152h-287l60 430l303 104l-33 148l-246 -84l53 376h287l21 154l-279 -4q-57 -6 -92 -21.5t-55.5 -40t-30.5 -57.5t-16 -74zM274 1667l29 29h195l16 -25l84 -84l178 -268h-227l-96 96h-11q-12 23 -30.5 50.5t-28.5 41.5q-4 4 -8 11.5t-8 11.5q-18 29 -44 65.5 t-49 71.5zM301 1665q47 -72 85 -127t69 -102h192l-160 239h-176z" />
<glyph unicode="&#xe9;" horiz-adv-x="890" d="M25 -20l151 1105q6 45 17.5 82t35 63.5t61.5 43t99 22.5l303 4l-2 -12l98 -96l-24 -182h-287q-8 -51 -15 -97.5t-13 -93.5q31 10 61.5 20.5t58.5 20.5l4 -16l95 -94l39 -177l-306 -104q-10 -78 -22 -150.5t-23 -146.5h179l-3 -12l99 -97l-25 -180h-473l-96 97h-12zM47 0 h445l20 152h-287l60 430l303 104l-33 148l-246 -84l53 376h287l21 154l-279 -4q-57 -6 -92 -21.5t-55.5 -40t-30.5 -57.5t-16 -74zM362 1415l187 281h194l29 -29q-2 -2 -2 -3t-2 -3l98 -96l-46 -70t-42 -63q-20 -29 -39.5 -59t-36.5 -54h-227l-96 96h-17zM399 1436h193 q31 47 68.5 102t84.5 127l-10 10h-176z" />
<glyph unicode="&#xea;" horiz-adv-x="860" d="M27 -20l151 1105q6 45 17.5 82t35 63.5t61.5 43t99 22.5l303 4l-2 -12l99 -96l-25 -182h-287q-8 -51 -15 -97.5t-13 -93.5q31 10 61.5 20.5t58.5 20.5l4 -16l95 -94l39 -177l-306 -104q-10 -78 -22 -150.5t-23 -146.5h179l-2 -12l98 -97l-25 -180h-473l-96 97h-12zM49 0 h445l20 152h-287l60 430l303 104l-33 148l-246 -84l54 376h286l21 154l-279 -4q-57 -6 -92 -21.5t-55.5 -40t-30.5 -57.5t-16 -74zM205 1546l18 13.5t23 17.5v6l2 -4q41 33 95 74t103 76q18 10 37 26q8 6 17.5 13.5t15.5 11.5l225 -203l-2 -8l99 -96l-23 -183l-225 156 l-264 -160l-97 96l-14 -8l23 150v10l-11 12h-22zM242 1417l247 150l211 -148l21 150l-205 184q-86 -61 -148.5 -106t-107.5 -80v-4l6 6l-2 -10l-2 -9v-4v-2l-4 -20z" />
<glyph unicode="&#xeb;" horiz-adv-x="860" d="M31 -20l151 1105q6 45 17.5 82t35 63.5t61.5 43t99 22.5l303 4l-2 -12l99 -96l-25 -182h-287q-8 -51 -15 -97.5t-13 -93.5q31 10 61.5 20.5t58.5 20.5l5 -16l94 -94l39 -177l-305 -104q-10 -78 -22.5 -150.5t-23.5 -146.5h179l-2 -12l98 -97l-25 -180h-473l-96 97h-12z M53 0h445l20 152h-287l60 430l303 104l-33 148l-246 -84l54 376h286l21 154l-279 -4q-57 -6 -92 -21.5t-55.5 -40t-30.5 -57.5t-16 -74zM244 1421l24 195h205q0 -4 -1 -6t-1 -4l51 -52l8 62h205q0 -4 -1 -6t-1 -4l98 -99q-4 -20 -7 -47.5t-7 -50.5q-4 -16 -6 -39.5t-6 -42.5 l-191 -2l-63 64q-4 -16 -5 -32t-3 -30l-191 -2l-96 96h-12zM266 1442l162 2q6 43 12 80t11 71h-164zM528 1442l162 2q6 43 12.5 80t10.5 71h-164z" />
<glyph unicode="&#xec;" horiz-adv-x="573" d="M33 -20l184 1320h199q-2 -4 -2 -10l98 -98q-4 -25 -9 -56.5t-12.5 -85t-17.5 -134t-24 -203.5q-4 -23 -5.5 -41.5t-5.5 -36.5q-14 -100 -24.5 -176t-22.5 -156t-25.5 -178t-33.5 -240l-191 -2l-96 97h-12zM55 0l162 2q14 104 25.5 181t20.5 139.5t16.5 114.5t15.5 108.5 t16 121t21 150.5q14 123 24.5 202t17.5 129t11 78.5t8 53.5h-157zM55 1667l29 29h195l16 -25l84 -84l178 -268h-227l-97 96h-10q-12 23 -30.5 50.5t-28.5 41.5q-4 4 -8 11.5t-9 11.5q-18 29 -43.5 65.5t-48.5 71.5zM82 1665q47 -72 85 -127t69 -102h192l-160 239h-176z" />
<glyph unicode="&#xed;" horiz-adv-x="706" d="M25 -20l184 1320h199q-2 -4 -2 -10l98 -98q-4 -25 -9.5 -56.5t-12.5 -85t-17 -134t-25 -203.5q-4 -23 -5 -41.5t-5 -36.5q-14 -100 -24.5 -176t-22.5 -156t-25.5 -178t-33.5 -240l-191 -2l-96 97h-12zM47 0l162 2q14 104 25.5 181t20.5 139.5t16.5 114.5t15.5 108.5 t16 121t21 150.5q14 123 24 202t17.5 129t11.5 78.5t8 53.5h-158zM190 1415l187 281h194l29 -29q-2 -2 -2 -3t-2 -3l98 -96l-46 -70t-42 -63q-20 -29 -39.5 -59t-36.5 -54h-227l-96 96h-17zM227 1436h193q31 47 68.5 102t84.5 127l-10 10h-176z" />
<glyph unicode="&#xee;" horiz-adv-x="718" d="M33 -20l184 1320h199q-2 -4 -2 -10l98 -98q-4 -25 -9 -56.5t-12.5 -85t-17.5 -134t-24 -203.5q-4 -23 -5.5 -41.5t-5.5 -36.5q-14 -100 -24.5 -176t-22.5 -156t-25.5 -178t-33.5 -240l-191 -2l-96 97h-12zM55 0l162 2q14 104 25.5 181t20.5 139.5t16.5 114.5t15.5 108.5 t16 121t21 150.5q14 123 24.5 202t17.5 129t11 78.5t8 53.5h-157zM78 1559q8 6 18 13t23 17v6l2 -4q41 33 95 74t103 76q18 10 37 26q8 6 17.5 13.5t15.5 11.5l225 -203l-2 -8l99 -96l-23 -182l-225 155l-264 -160l-97 97l-14 -9l23 150v10l-11 13h-22zM115 1430l247 149 l211 -147l21 149l-205 184q-86 -61 -148.5 -106t-107.5 -80v-4l6 6l-2 -10l-2 -8v-4v-3l-4 -20z" />
<glyph unicode="&#xef;" horiz-adv-x="708" d="M39 -20l184 1320h199q-2 -4 -2 -10l98 -98q-4 -25 -9 -56.5t-12.5 -85t-17.5 -134t-24 -203.5q-4 -23 -5 -41.5t-6 -36.5q-14 -100 -24 -176t-22.5 -156t-26 -178t-33.5 -240l-191 -2l-96 97h-12zM61 0l162 2q14 104 25.5 181t21 139.5t16.5 114.5t15 108.5t16.5 121 t20.5 150.5q14 123 24.5 202t17.5 129t11 78.5t8 53.5h-157zM106 1415l25 195h205q0 -4 -1 -6t-1 -5l51 -51l8 62h205q0 -4 -1 -6t-1 -5l98 -98q-4 -20 -7 -48t-7 -50q-4 -16 -6 -40t-6 -42l-191 -2l-63 63q-4 -16 -5 -31.5t-3 -29.5l-191 -2l-96 96h-13zM129 1436l162 2 q6 43 12 79.5t10 71.5h-163zM391 1436l162 2q6 43 12 79.5t10 71.5h-163z" />
<glyph unicode="&#xf0;" horiz-adv-x="905" d="M39 180l98 717l162 -80l18 172h-47l-96 96h-14q14 63 37.5 114.5t68.5 94.5l328 2q16 -12 30.5 -27.5t24.5 -35.5l53 -53q23 10 46.5 18t39.5 16l-4 -16l99 -96l-41 -217l-103 -43q-20 -127 -38.5 -256t-38.5 -256q-8 -63 -17.5 -129t-17.5 -127q-4 -39 -16.5 -75 t-31 -62.5t-42 -42t-45.5 -13.5h-211q-29 4 -49.5 13.5t-36.5 25.5l-72 72q-88 39 -84 188zM59 178q-6 -164 121 -180h209q20 -2 41 12.5t38 39t28.5 58t13.5 70.5l35 256l2 2l78 516l102 43l35 187q-31 -12 -57.5 -23.5t-53.5 -21.5q2 49 -17.5 83.5t-43.5 55.5l-316 -2 q-39 -35 -58 -77t-30 -91h181v-2h112l-6 -39q-33 -14 -65.5 -26.5t-67.5 -28.5v-4h2l-2 -11l-21 -161l130 47l-21 -150l-274 135zM229 180l52 373l112 -47l-41 -328z" />
<glyph unicode="&#xf1;" horiz-adv-x="878" d="M31 -20q4 25 6 51t6 49q4 25 6 47.5t6 42.5q0 2 1 3t1 3l117 828l19 133q16 92 36.5 127.5t67.5 35.5l299 -2q53 0 70 -43l82 -81q16 -16 22 -51.5t-2 -94.5l-141 -997q-4 -16 -4 -31.5t-5 -34.5q-2 -16 -5 -39.5t-7 -42.5h-190l-80 80q-4 -20 -6 -31.5t-4 -21.5 q0 -6 -1 -15.5t-1 -11.5h-185l-96 97h-12zM53 0h154q2 12 6 29.5t10 58.5t16.5 112.5t28 193.5t42 300t59.5 432h2l-4 2h122q-35 -233 -61.5 -417.5t-46 -322.5t-31.5 -234.5t-20 -153.5h162q6 43 10 74.5t8 60.5v-4l141 1002q10 82 -5 113.5t-50 31.5l-299 2 q-35 0 -53.5 -31.5t-30.5 -113.5l-18 -134h-2l-115 -827q-4 -31 -10.5 -73t-14.5 -101zM233 1473l21 143q10 49 21.5 77.5t56.5 35.5l268 -3l-4 -12l10 -8l6 23h119q0 -4 2 -9q2 -4 3 -7t5 -7l88 -86q2 -6 7 -12q4 -4 7 -11.5t7 -11.5l-10 -39q-4 -39 -11.5 -75.5 t-11.5 -75.5q-2 -23 -34.5 -46.5t-77.5 -19.5h-209l-27 25l-10 -29h-43q-39 4 -58 23l-79 79q-33 12 -46 46zM254 1477q12 -33 59 -35h33l35 96h-21l11 76h88l-47 -168h192q41 -4 71 13.5t25 35.5l23 156l8 37l-12 20h-21h-67l-29 -94h27l-11 -76h-90l45 168l-239 2 q-33 -4 -42 -28.5t-18 -65.5z" />
<glyph unicode="&#xf2;" horiz-adv-x="772" d="M29 78q0 12 1 32.5t5 39.5q2 16 4 37.5t4 31.5q2 16 4 32.5t4 33.5l113 876q4 6 12 23q8 20 25.5 49t62.5 67l166 -2v-2h150q8 -10 15 -19t11 -17l74 -72q35 -41 44 -69.5t13 -47.5q2 -4 2 -11t2 -11l-123 -875l-18 -133q-14 -88 -34.5 -123t-63.5 -35l-62 -4l-237 6 q-25 0 -43 19l-82 82q-49 12 -49 92zM55 147q-10 -82 0.5 -113.5t44.5 -31.5l238 -6v4h61q35 0 53.5 31.5t30.5 113.5l19 134h2l121 870q-6 16 -10.5 48t-43.5 79h-155v2l-144 2q-51 -45 -64 -77t-24 -48l-112 -872h2zM213 154l23 155l104 815h123l-115 -815l-20 -155h-2v-2 zM215 1667l29 29h194l17 -25l84 -84l178 -268h-228l-96 96h-10q-12 23 -30.5 50.5t-28.5 41.5q-4 4 -8.5 11.5t-8.5 11.5q-18 29 -43.5 65.5t-48.5 71.5zM242 1665q47 -72 85 -127t68 -102h193l-160 239h-176z" />
<glyph unicode="&#xf3;" horiz-adv-x="843" d="M27 78q0 12 1 32.5t5 39.5q2 16 4 37.5t4 31.5q2 16 4 32.5t4 33.5l113 876q4 6 12 23q8 20 25.5 49t62.5 67l166 -2v-2h150q8 -10 15 -19t11 -17l74 -72q35 -41 44 -69.5t13 -47.5q2 -4 2 -11t2 -11l-123 -875l-18 -133q-14 -88 -34.5 -123t-63.5 -35l-62 -4l-237 6 q-25 0 -43 19l-82 82q-49 12 -49 92zM53 33.5q10 -31.5 45 -31.5l238 -6v4h61q35 0 53.5 31.5t30.5 113.5l19 134h2l121 870q-6 16 -10.5 48t-43.5 79h-155v2l-144 2q-51 -45 -64 -77t-24 -48l-112 -872h2l-19 -136q-10 -82 0 -113.5zM211 154l22 155l105 815h123l-115 -815 l-20 -155h-2v-2zM313 1415l187 281h194l29 -29q-2 -2 -2 -3t-2 -3l98 -96l-46 -70t-42 -63q-20 -29 -39.5 -59t-36.5 -54h-227l-96 96h-17zM350 1436h193q31 47 68.5 102t84.5 127l-10 10h-176z" />
<glyph unicode="&#xf4;" horiz-adv-x="837" d="M31 78q0 12 1 32.5t5 39.5q2 16 4 37.5t4 31.5q2 16 4 32.5t4 33.5l113 876q4 6 12 23q8 20 25.5 49t62.5 67h31l-94 95l-15 -9l23 150v10l-10 13h-23q8 6 18.5 13t22.5 17v6l2 -4q41 33 95.5 74t103.5 76q18 10 37 26q8 6 17 13.5t15 11.5l226 -203l-2 -8l98 -96 l-23 -182l-225 155l-262 -158l131 -2v-2h150q8 -10 15 -19t11 -17l74 -72q35 -41 44 -69.5t13 -47.5q2 -4 2 -11t2 -11l-122 -875l-19 -133q-14 -88 -34.5 -123t-63.5 -35l-62 -4l-237 6q-25 0 -43 19l-82 82q-49 12 -49 92zM57 147q-10 -82 0.5 -113.5t44.5 -31.5l238 -6v4 h61q35 0 53.5 31.5t30.5 113.5l19 134h2l121 870q-6 16 -10.5 48t-43.5 79h-155v2l-144 2q-51 -45 -64 -77t-24 -48l-112 -872h2zM215 154l23 155l104 815h123l-115 -815l-20 -155h-2v-2zM215 1430l248 149l211 -147l20 149l-205 184q-86 -61 -148 -106t-108 -80v-4l7 6 l-2 -10l-2 -8v-4v-3l-5 -20z" />
<glyph unicode="&#xf5;" horiz-adv-x="856" d="M33 78q0 12 1 32.5t5 39.5q2 16 4 37.5t4 31.5q2 16 4 32.5t4 33.5l113 876q4 6 12 23q8 20 25.5 49t62.5 67l166 -2v-2h150q8 -10 15 -19t11 -17l74 -72q35 -41 44 -69.5t13 -47.5q2 -4 2 -11t2 -11l-122 -875l-19 -133q-14 -88 -34.5 -123t-63.5 -35l-62 -4l-237 6 q-25 0 -43 19l-82 82q-49 12 -49 92zM59 147q-10 -82 0.5 -113.5t44.5 -31.5l238 -6v4h61q35 0 53.5 31.5t30.5 113.5l19 134h2l121 870q-6 16 -10.5 48t-43.5 79h-155v2l-144 2q-51 -45 -64 -77t-24 -48l-112 -872h2zM213 1473l20 143q10 49 21.5 77.5t56.5 35.5l269 -3 l-5 -12l11 -8l6 23h119q0 -4 2 -9q2 -4 3 -7t5 -7l88 -86q2 -6 6 -12q4 -4 7 -11.5t7 -11.5l-10 -39q-4 -39 -11 -75.5t-11 -75.5q-2 -23 -35 -46.5t-78 -19.5h-209l-26 25l-11 -29h-43q-39 4 -57 23l-80 79q-33 12 -45 46zM217 154l23 155l104 815h123l-115 -815l-20 -155 h-2v-2zM233 1477q12 -33 60 -35h33l34 96h-20l10 76h88l-47 -168h193q41 -4 70.5 13.5t25.5 35.5l22 156l9 37q-12 20 -13 20h-20h-68l-28 -94h26l-10 -76h-90l45 168l-240 2q-33 -4 -42 -28.5t-17 -65.5z" />
<glyph unicode="&#xf6;" horiz-adv-x="831" d="M33 78q0 12 1 32.5t5 39.5q2 16 4 37.5t4 31.5q2 16 4 32.5t4 33.5l113 876q4 6 12 23q8 20 25.5 49t62.5 67l166 -2v-2h150q8 -10 15 -19t11 -17l74 -72q35 -41 44 -69.5t13 -47.5q2 -4 2 -11t2 -11l-122 -875l-19 -133q-14 -88 -34.5 -123t-63.5 -35l-62 -4l-237 6 q-25 0 -43 19l-82 82q-49 12 -49 92zM59 147q-10 -82 0.5 -113.5t44.5 -31.5l238 -6v4h61q35 0 53.5 31.5t30.5 113.5l19 134h2l121 870q-6 16 -10.5 48t-43.5 79h-155v2l-144 2q-51 -45 -64 -77t-24 -48l-112 -872h2zM213 1421l25 195h204q0 -4 -1 -6t-1 -4l52 -52l8 62 h205q0 -4 -1.5 -6t-1.5 -4l99 -99q-4 -20 -7 -47.5t-8 -50.5q-4 -16 -6 -39.5t-6 -42.5l-190 -2l-64 64q-4 -16 -5 -32t-3 -30l-190 -2l-97 96h-12zM217 154l23 155l104 815h123l-115 -815l-20 -155h-2v-2zM236 1442l161 2q6 43 12.5 80t10.5 71h-164zM498 1442l161 2 q6 43 12.5 80t10.5 71h-164z" />
<glyph unicode="&#xf7;" horiz-adv-x="1048" d="M16 510l27 199h223q55 0 110.5 1t108.5 1h27l-90 90h-12l24 194h205q0 -4 -1 -6t-1 -4l98 -98q-4 -20 -7 -48t-7 -51q-4 -16 -6 -38.5t-6 -40.5q59 0 115.5 -1t111.5 -1l-2 -13l98 -96l-24 -184h-443l92 -92q-4 -20 -7 -48t-7 -51q-4 -16 -6 -39.5t-6 -42.5l-191 -2 l-96 97h-12l22 178h-229l-96 96h-13zM39 530h854l20 156q-217 4 -428 4t-424 -2zM354 256l162 2q6 43 12.5 80t10.5 72h-164zM432 821l162 2q6 43 12 80t10 72h-163z" />
<glyph unicode="&#xf8;" horiz-adv-x="774" d="M31 78q0 12 1 32.5t5 39.5q2 16 4 37.5t4 31.5q2 16 4 32.5t4 33.5l113 876q4 6 12 23q8 20 25.5 49t62.5 67l58 -2q4 18 5 39t5 41t7 44l5 40h199q0 -4 -1 -5t-1 -5l98 -98q-2 -10 -4 -30.5t-4 -33.5q-2 -12 -4 -22.5t-4 -22.5l57 -57q35 -41 44 -69.5t13 -47.5 q2 -4 2 -11t2 -11l-122 -875l-19 -133q-14 -88 -34.5 -123t-63.5 -35l-62 -4h-8q-2 -10 -3 -22.5t-3 -20.5q-4 -29 -10 -62.5t-10 -58.5h-187l-96 97h-12l16 120l-53 52q-45 12 -45 94zM57 147q-10 -82 0.5 -113.5t44.5 -31.5l58 -2l-25 -168h158q4 37 12 82t14 84l21 -2v4 h61q35 0 53.5 31.5t30.5 113.5l19 134h2l121 870q-6 16 -10.5 48t-43.5 79h-75q10 66 15 101.5t9 64.5h-157l-23 -164l-68 2q-51 -45 -64 -77t-24 -48l-112 -872h2zM215 154l23 155l104 815h123l-115 -815l-20 -155h-2v-2z" />
<glyph unicode="&#xf9;" horiz-adv-x="806" d="M41 150l141 1001q2 8 2 13t2 16q0 12 4 32q2 16 5.5 43t7.5 45h205q-2 -4 -2 -12l67 -69q4 18 6 29.5t4 21.5q0 4 1 8t1 8v14h197q0 -4 -1 -6t-1 -4l98 -98q-8 -53 -14 -101.5t-10 -76.5q0 -4 -1 -6t-1 -7l-117 -827l-19 -133q-14 -88 -34.5 -123t-63.5 -35l-299 2 q-33 0 -49 17l-84 84q-31 10 -43 48t-2 116zM61 147q-10 -82 5.5 -113.5t50.5 -31.5l299 -2q35 0 53 31.5t31 113.5l18 134h2l115 827q4 31 10 73t14 101h-153q-2 -12 -6 -29.5t-10.5 -58.5t-16.5 -112.5t-27.5 -193.5t-42 -300t-59.5 -432h-2l4 -2h-123q35 233 61.5 417.5 t46 322.5t32 234.5t20.5 153.5h-162q-6 -43 -10 -74.5t-8 -60.5v4zM184 1667l29 29h195l16 -25l84 -84l178 -268h-227l-97 96h-10q-12 23 -30.5 50.5t-28.5 41.5q-4 4 -8 11.5t-9 11.5q-18 29 -43.5 65.5t-48.5 71.5zM211 1665q47 -72 85 -127t69 -102h192l-160 239h-176z " />
<glyph unicode="&#xfa;" horiz-adv-x="843" d="M37 150l141 1001q2 8 2 13t2 16q0 12 4 32q2 16 5.5 43t7.5 45h204q-2 -4 -2 -12l68 -69q4 18 6 29.5t4 21.5q0 4 1 8t1 8v14h197q0 -4 -1 -6t-1 -4l98 -98q-8 -53 -14 -101.5t-10 -76.5q0 -4 -1 -6t-1 -7l-117 -827l-19 -133q-14 -88 -34.5 -123t-63.5 -35l-299 2 q-33 0 -49 17l-84 84q-31 10 -43 48t-2 116zM57 147q-10 -82 5.5 -113.5t50.5 -31.5l299 -2q35 0 53 31.5t31 113.5l18 134h2l115 827q4 31 10 73t14 101h-153q-2 -12 -6 -29.5t-10.5 -58.5t-16.5 -112.5t-27.5 -193.5t-42 -300t-59.5 -432h-2l4 -2h-123q35 233 61.5 417.5 t46 322.5t32 234.5t20.5 153.5h-162q-6 -43 -10 -74.5t-8 -60.5v4zM311 1415l187 281h194l29 -29q-2 -2 -2 -3t-2 -3l98 -96q-23 -35 -46.5 -70t-41.5 -63q-20 -29 -39.5 -59t-36.5 -54h-227l-96 96h-17zM348 1436h193q31 47 68.5 102t84.5 127l-10 10h-176z" />
<glyph unicode="&#xfb;" horiz-adv-x="860" d="M41 150l141 1001q2 8 2 13t2 16q0 12 4 32q2 16 5.5 43t7.5 45h116l-94 95l-14 -9l22 150v10l-10 13h-22q8 6 18 13t23 17v6l2 -4q41 33 95 74t103 76q18 10 37 26q8 6 17.5 13.5t15.5 11.5l225 -203l-2 -8l99 -96l-23 -182l-225 155l-262 -158h84q-2 -4 -2 -12l67 -69 q4 18 6 29.5t4 21.5q0 4 1 8t1 8v14h197q0 -4 -1 -6t-1 -4l98 -98q-8 -53 -14 -101.5t-10 -76.5q0 -4 -1 -6t-1 -7l-117 -827l-19 -133q-14 -88 -34.5 -123t-63.5 -35l-299 2q-33 0 -49 17l-84 84q-31 10 -43 48t-2 116zM61 147q-10 -82 5.5 -113.5t50.5 -31.5l299 -2 q35 0 53 31.5t31 113.5l18 134h2l115 827q4 31 10 73t14 101h-153q-2 -12 -6 -29.5t-10.5 -58.5t-16.5 -112.5t-27.5 -193.5t-42 -300t-59.5 -432h-2l4 -2h-123q35 233 61.5 417.5t46 322.5t32 234.5t20.5 153.5h-162q-6 -43 -10 -74.5t-8 -60.5v4zM238 1430l247 149 l211 -147l21 149l-205 184q-86 -61 -148.5 -106t-107.5 -80v-4l6 6l-2 -10l-2 -8v-4v-3l-4 -20z" />
<glyph unicode="&#xfc;" horiz-adv-x="849" d="M43 150l141 1001q2 8 2 13t2 16q0 12 5 32q2 16 5 43t7 45h205q-2 -4 -2 -12l67 -69q4 18 6 29.5t4 21.5q0 4 1 8t1 8v14h197q0 -4 -1 -6t-1 -4l98 -98q-8 -53 -14 -101.5t-10 -76.5q0 -4 -1 -6t-1 -7l-117 -827l-19 -133q-14 -88 -34.5 -123t-63.5 -35l-299 2 q-33 0 -49 17l-84 84q-31 10 -43 48t-2 116zM63 147q-10 -82 5.5 -113.5t50.5 -31.5l299 -2q35 0 53 31.5t31 113.5l18 134h2l115 827q4 31 10 73t15 101h-154q-2 -12 -6 -29.5t-10.5 -58.5t-16.5 -112.5t-27.5 -193.5t-42 -300t-59.5 -432h-2l4 -2h-123q35 233 61.5 417.5 t46 322.5t32 234.5t20.5 153.5h-162q-6 -43 -10 -74.5t-8 -60.5v4zM231 1421l25 195h205q0 -4 -1 -6t-1 -4l51 -52l8 62h205q0 -4 -1 -6t-1 -4l98 -99q-4 -20 -7 -47.5t-7 -50.5q-4 -16 -6 -39.5t-6 -42.5l-191 -2l-63 64q-4 -16 -5.5 -32t-3.5 -30l-190 -2l-96 96h-13z M254 1442l162 2q6 43 12 80t10 71h-164zM516 1442l162 2q6 43 12 80t10 71h-163z" />
<glyph unicode="&#xfd;" horiz-adv-x="811" d="M25 160l225 184l-4 -20l78 -80l22 176q2 10 3 18t1 19q-45 -16 -89 -33.5t-85 -32.5l-98 96q-8 -4 -12 -4l108 817h201l-2 -12l76 -78q4 23 6 45.5t6 44.5h198l-2 -12l99 -96l-146 -1143q-6 -131 -104 -170l-219 4q-12 0 -43 9.5t-60 37.5l-71 72q-31 16 -57.5 54 t-30.5 104zM45 154q4 -49 22.5 -79t41 -47.5t44 -22.5t31.5 -5l215 -4q90 33 95 158l143 1126h-158l-61 -483l-137 -54l71 537h-159l-101 -764l303 115l-61 -477h-129l18 143zM274 1415l187 281h194l29 -29q-2 -2 -2 -3t-2 -3l98 -96l-46 -70t-42 -63q-20 -29 -39.5 -59 t-36.5 -54h-227l-96 96h-17zM311 1436h193q31 47 68.5 102t84.5 127l-10 10h-176z" />
<glyph unicode="&#xfe;" horiz-adv-x="751" d="M29 -367l231 1674h203q-2 -4 -2 -11l98 -98q-14 -94 -24.5 -167t-17.5 -129t-12 -98t-9 -75q-2 -8 -2 -14t-2 -10h6q94 -12 123 -70l73 -74q0 2 -1 2t-1 2l6 -6q41 -41 37 -149l-30 -207q-12 -70 -29 -119t-66 -92q-14 -6 -42.5 -16.5t-65.5 -18.5q-10 -4 -26.5 -10 t-33.5 -13q-23 -6 -42 -11t-19 -3l-53 -383h-191l-96 96h-12zM51 -346h162l51 371q0 2 19.5 9t44 15t45 14.5t24.5 10.5q39 8 64.5 17t36.5 13q47 41 62 89.5t28 113.5l30 207q2 86 -23.5 124t-98.5 46l-138 -2q8 57 13.5 103t13.5 107.5t20.5 153t34.5 240.5h-161zM293 219 l41 309h131l-39 -266z" />
<glyph unicode="&#xff;" horiz-adv-x="827" d="M31 160l225 184l-4 -20l78 -80l22 176q2 10 3 18t1 19q-45 -16 -89 -33.5t-85 -32.5l-98 96q-8 -4 -12 -4l108 817h201l-2 -12l76 -78q4 23 6 45.5t6 44.5h199l-2 -12l98 -96l-146 -1143q-6 -131 -104 -170l-219 4q-12 0 -43 9.5t-60 37.5l-71 72q-31 16 -57.5 54 t-30.5 104zM51 154q4 -49 22.5 -79t41 -47.5t44 -22.5t31.5 -5l216 -4q90 33 94 158l143 1126h-158l-61 -483l-137 -54l71 537h-159l-101 -764l303 115l-61 -477h-129l18 143zM209 1423l24 195h205q0 -4 -1 -6t-1 -4l51 -52l9 62h204q0 -4 -1 -6t-1 -4l99 -99 q-4 -20 -7.5 -47.5t-7.5 -50.5q-4 -16 -6 -39.5t-6 -42.5l-190 -2l-64 64q-4 -16 -5 -32t-3 -30l-191 -2l-96 96h-12zM231 1444l162 2q6 43 12.5 80t10.5 71h-164zM494 1444l161 2q6 43 12.5 80t10.5 71h-164z" />
<glyph unicode="&#x152;" horiz-adv-x="1130" d="M39 -23l184 1323l404 -4q0 -2 4 -10q10 2 26.5 4t36.5 6l303 4l-2 -12l99 -96l-25 -182h-287q-8 -51 -15 -97.5t-13 -93.5q31 10 61.5 20.5t58.5 20.5l5 -16l94 -94l39 -177l-305 -104q-10 -78 -22.5 -150.5t-22.5 -146.5h178l-2 -12l98 -97l-25 -180h-456l-308 -2 l-96 96h-12zM61 -2l291 2h90h7h348l20 152h-287l60 430l303 104l-33 148l-246 -84l54 376h286l21 154l-279 -4q-45 -6 -71 -14q-4 4 -5.5 7t-5.5 7l-372 4zM242 154l137 970h127l-23 -163l-88 -642h-2l-22 -165h-129z" />
<glyph unicode="&#x153;" horiz-adv-x="1130" d="M39 -23l184 1323l404 -4q0 -2 4 -10q10 2 26.5 4t36.5 6l303 4l-2 -12l99 -96l-25 -182h-287q-8 -51 -15 -97.5t-13 -93.5q31 10 61.5 20.5t58.5 20.5l5 -16l94 -94l39 -177l-305 -104q-10 -78 -22.5 -150.5t-22.5 -146.5h178l-2 -12l98 -97l-25 -180h-456l-308 -2 l-96 96h-12zM61 -2l291 2h90h7h348l20 152h-287l60 430l303 104l-33 148l-246 -84l54 376h286l21 154l-279 -4q-45 -6 -71 -14q-4 4 -5.5 7t-5.5 7l-372 4zM242 154l137 970h127l-23 -163l-88 -642h-2l-22 -165h-129z" />
<glyph unicode="&#x178;" horiz-adv-x="827" d="M31 160l225 184l-4 -20l78 -80l22 176q2 10 3 18t1 19q-45 -16 -89 -33.5t-85 -32.5l-98 96q-8 -4 -12 -4l108 817h201l-2 -12l76 -78q4 23 6 45.5t6 44.5h199l-2 -12l98 -96l-146 -1143q-6 -131 -104 -170l-219 4q-12 0 -43 9.5t-60 37.5l-71 72q-31 16 -57.5 54 t-30.5 104zM51 154q4 -49 22.5 -79t41 -47.5t44 -22.5t31.5 -5l216 -4q90 33 94 158l143 1126h-158l-61 -483l-137 -54l71 537h-159l-101 -764l303 115l-61 -477h-129l18 143zM209 1423l24 195h205q0 -4 -1 -6t-1 -4l51 -52l9 62h204q0 -4 -1 -6t-1 -4l99 -99 q-4 -20 -7.5 -47.5t-7.5 -50.5q-4 -16 -6 -39.5t-6 -42.5l-190 -2l-64 64q-4 -16 -5 -32t-3 -30l-191 -2l-96 96h-12zM231 1444l162 2q6 43 12.5 80t10.5 71h-164zM494 1444l161 2q6 43 12.5 80t10.5 71h-164z" />
<glyph unicode="&#x2c6;" horiz-adv-x="692" d="M31 1241q10 6 19 13.5t22 17.5v6l2 -4q41 33 95 74t103 75q18 10 37 27q8 6 17.5 13t15.5 12l225 -203l-2 -8l99 -97l-23 -182l-225 156l-264 -160l-97 96l-14 -8l22 150v10l-10 12h-22zM68 1112l247 150l211 -148l21 150l-205 184q-86 -61 -148.5 -106.5t-107.5 -79.5 v-5l6 7l-2 -11l-2 -8v-4v-2l-4 -20z" />
<glyph unicode="&#x2dc;" horiz-adv-x="700" d="M41 1053l20 143q10 49 21.5 78t56.5 35l269 -2l-5 -13l11 -8l6 23h119q0 -4 2 -9q2 -4 3 -7t5 -7l88 -86q2 -6 6 -12q4 -4 7 -11.5t7 -11.5l-10 -39q-4 -39 -11 -75.5t-11 -75.5q-2 -23 -35 -46.5t-76 -19.5h-211l-27 25l-10 -29h-43q-39 4 -57 23l-80 80q-33 12 -45 45z M61 1057q12 -33 60 -35h33l34 96h-20l10 76h88l-47 -168h193q41 -4 70.5 13.5t25.5 35.5l22 156l9 37q-12 20 -13 20h-20h-68l-28 -94h26l-10 -76h-90l45 168l-240 2q-33 -4 -42 -28.5t-17 -65.5z" />
<glyph unicode="&#x2000;" horiz-adv-x="896" />
<glyph unicode="&#x2001;" horiz-adv-x="1792" />
<glyph unicode="&#x2002;" horiz-adv-x="896" />
<glyph unicode="&#x2003;" horiz-adv-x="1792" />
<glyph unicode="&#x2004;" horiz-adv-x="597" />
<glyph unicode="&#x2005;" horiz-adv-x="448" />
<glyph unicode="&#x2006;" horiz-adv-x="298" />
<glyph unicode="&#x2007;" horiz-adv-x="298" />
<glyph unicode="&#x2008;" horiz-adv-x="224" />
<glyph unicode="&#x2009;" horiz-adv-x="358" />
<glyph unicode="&#x200a;" horiz-adv-x="99" />
<glyph unicode="&#x2010;" horiz-adv-x="765" d="M45 430l23 162l-7 4v35h400q39 0 81 1t83 1l-2 -12l98 -97l-27 -188l-540 -2l-97 96h-12zM68 451l512 2l22 159h-141.5h-126t-127 -1t-139.5 -1l24 2z" />
<glyph unicode="&#x2011;" horiz-adv-x="765" d="M45 430l23 162l-7 4v35h400q39 0 81 1t83 1l-2 -12l98 -97l-27 -188l-540 -2l-97 96h-12zM68 451l512 2l22 159h-141.5h-126t-127 -1t-139.5 -1l24 2z" />
<glyph unicode="&#x2012;" horiz-adv-x="765" d="M45 430l23 162l-7 4v35h400q39 0 81 1t83 1l-2 -12l98 -97l-27 -188l-540 -2l-97 96h-12zM68 451l512 2l22 159h-141.5h-126t-127 -1t-139.5 -1l24 2z" />
<glyph unicode="&#x2013;" horiz-adv-x="1019" d="M47 428l27 199h398.5t404.5 -2l-3 -13l99 -96l-27 -188l-790 4l-97 96h-12zM70 449l761 -5l23 160q-197 2 -384 2h-378z" />
<glyph unicode="&#x2014;" horiz-adv-x="1378" d="M49 426l27 199q51 0 106.5 1t108.5 1h205q174 0 362.5 -1t374.5 -5l-2 -13l98 -96l-24 -180l-1147 -2l-97 96h-12zM72 446l1118 3l20 151q-293 4 -567 5t-549 -1z" />
<glyph unicode="&#x2018;" horiz-adv-x="395" d="M39 940q2 10 5 31.5t5 36.5q4 35 13.5 107.5t25.5 184.5l121 3l-2 -13l98 -96l-12 -94l74 -74l-25 -182h-192l-97 96h-14zM66 961h161l21 153h-84l22 168l-80 -2q-12 -82 -18 -135t-11 -89t-7 -57.5t-4 -37.5z" />
<glyph unicode="&#x2019;" horiz-adv-x="391" d="M27 1108l24 195h205q0 -2 -1 -4.5t-1 -6.5l98 -98q-2 -10 -4 -28.5t-4 -32.5q-6 -68 -39 -287l-108 -2l-97 96h-12l14 104l-63 64h-12zM49 1128h84l-22 -167l79 2q12 82 18.5 135t11.5 89t7 57.5t4 37.5h-161z" />
<glyph unicode="&#x201a;" horiz-adv-x="391" d="M27 -20l24 194h205q0 -2 -1 -4t-1 -6l98 -98q-2 -10 -4 -29t-4 -33q-6 -68 -39 -287l-108 -2l-97 97h-12l14 104l-63 64h-12zM49 0h84l-22 -168l79 2q12 82 18.5 135.5t11.5 89t7 57t4 38.5h-161z" />
<glyph unicode="&#x201c;" horiz-adv-x="696" d="M43 940q2 10 5 31.5t5 36.5q4 35 13.5 107.5t25.5 184.5l121 3l-2 -13l98 -96l-12 -94l47 -49q4 41 13.5 101t21.5 142l121 2l-2 -12l98 -96l-12 -94l73 -74l-24 -182h-193l-84 84l-10 -78h-192l-97 96h-14zM70 961h161l21 153h-84l22 168l-79 -2q-12 -82 -18.5 -135 t-11.5 -89t-7 -57.5t-4 -37.5zM356 954h162l21 154h-84l22 168l-80 -2q-12 -82 -18 -135.5t-11.5 -89t-7.5 -57t-4 -38.5z" />
<glyph unicode="&#x201d;" horiz-adv-x="694" d="M37 1108l24 195h205q0 -2 -1 -4.5t-1 -6.5l74 -73l10 77h205q0 -2 -1 -4t-1 -6l98 -98q-2 -10 -4 -28.5t-4 -33.5q-6 -68 -39 -286l-108 -2l-97 96h-12l14 104l-49 49q-4 -41 -13 -99t-22 -142l-108 -2l-96 96h-13l15 104l-64 64h-12zM59 1128h84l-22 -167l80 2 q12 82 18 135t11.5 89t7.5 57.5t4 37.5h-162zM346 1122h84l-22 -168l79 2q12 82 18.5 135.5t11.5 89.5t7 57.5t4 37.5h-161z" />
<glyph unicode="&#x201e;" horiz-adv-x="690" d="M39 -20l24 194h205q0 -2 -1 -4t-1 -6l68 -68l10 78h205q0 -2 -1 -4t-1 -6l98 -98q-2 -10 -4 -29t-4 -33q-6 -68 -39 -287l-109 -2l-96 97h-12l14 104l-43 43q-4 -39 -13 -97.5t-22 -144.5l-108 -2l-96 97h-13l15 104l-64 64h-12zM61 0h84l-22 -168l80 2q12 82 18 135.5 t11.5 89t7.5 57t4 38.5h-162zM342 0h84l-23 -168l80 2q12 82 18.5 135.5t11.5 89t7 57t4 38.5h-162z" />
<glyph unicode="&#x2022;" horiz-adv-x="700" d="M43 410l68 460h450q0 -8 -2 -12l98 -96q-4 -37 -12 -85t-14 -89q-10 -61 -20.5 -132t-18.5 -143h-440l-97 97h-12zM66 430h411q14 119 31.5 223.5t30.5 196.5h-410z" />
<glyph unicode="&#x2026;" horiz-adv-x="944" d="M47 -20l25 194h204q0 -4 -1 -6t-1 -4l52 -51l8 61h205q0 -4 -1 -6t-1 -4l51 -51l8 61h205q0 -4 -1 -6t-1 -4l98 -98q-4 -20 -7 -48t-7 -51q-4 -16 -6.5 -39.5t-6.5 -42.5l-190 -2l-64 64q-4 -16 -5 -31.5t-3 -30.5l-190 -2l-64 64q-4 -16 -5 -31.5t-3 -30.5l-190 -2 l-97 97h-12zM70 0l161 2q6 43 12.5 80t10.5 72h-164zM332 0l162 2q6 43 12 80t10 72h-164zM594 0l162 2q6 43 12 80t10 72h-164z" />
<glyph unicode="&#x202f;" horiz-adv-x="358" />
<glyph unicode="&#x2039;" horiz-adv-x="696" d="M18 455l363 499l199 2l-9 -12l99 -96l-353 -502l213 -463h-184l-96 97h-10zM41 453l211 -453h154l-207 453l340 483l-148 -2z" />
<glyph unicode="&#x203a;" horiz-adv-x="702" d="M27 -20l358 507l-217 469h199l8 -20l90 -88l219 -469l-358 -494l-185 -2l-96 97h-18zM68 0l147 2l350 481l-211 453h-153l207 -453z" />
<glyph unicode="&#x205f;" horiz-adv-x="448" />
<glyph unicode="&#x20ac;" horiz-adv-x="821" d="M39 418v198h84q2 16 3 32t5 32l-80 80h-12v198h127q4 23 7 50.5t7 52.5t7 50.5t8 49.5q4 6 12 23q8 20 25.5 49t62.5 67l151 -4h164q8 -10 15.5 -19t11.5 -17l74 -72q35 -41 44 -69.5t13 -47.5q2 -4 2 -11t2 -11l-20 -144h-21l55 -55l-24 -186h-320l-8 -48h211l-2 -12 l98 -96l-24 -186h-318l-6 -43h168l-2 -13l98 -96l-16 -123q-14 -88 -41 -126t-68 -38l-299 2q-29 0 -45 17l-84 82q-45 12 -45 94q0 12 1 32.5t6 39.5q2 16 4 37.5t4 31.5q2 16 4 32.5t4 33.5l10 88l-41 45h-12zM59 438h64l-21 -155h2l-18 -136q-10 -82 0 -113.5t45 -31.5 l299 -2q35 0 58.5 35t35.5 117l15 106h-158l-12 -106h-125l22 157l17 129h274v2l45 -2l21 158h-320l23 184h321l21 158h-322l25 186h123l-15 -102h158l18 127q-6 16 -10 48t-43 79h-156v2l-143 2q-51 -45 -64.5 -77t-23.5 -48l-29 -217h-127v-158h107l-23 -184h-84v-158z M479 958h33l-29 29q-4 -20 -4 -29z" />
<glyph unicode="&#x2122;" horiz-adv-x="1269" d="M49 598l103 506l-68 70h-14l26 126h346l-2 -10l99 -98l-19 -115h-98q0 -2 -1 -5t-1 -5q-4 -23 -10.5 -55.5t-12.5 -75.5q-8 -43 -14 -77t-12 -61.5t-11.5 -55t-11.5 -58.5q-6 -33 -16 -80t-21 -100l-151 -2l-97 96h-14zM76 618l121 3q16 80 26 131t18.5 93t17.5 86 t22 109q8 55 15 92t11 62h99l14 86h-305l-19 -86h94zM430 600q6 53 11 79t10 36q10 53 21 106t22 107q10 53 21 106t22 107q2 8 3 14t3 16q2 8 4 16.5t4 18.5q18 94 82 94h201l14 -14l6 6q2 2 2 4h2l8 4h197q51 0 59 -38l86 -84q20 -20 13 -78l-107 -516q-2 -10 -4 -23.5 t-6 -30.5q0 -4 -1 -9t-5 -17h-150l-49 49q-2 -4 -2 -14q-2 -6 -3 -16.5t-3 -18.5h-148l-51 51q-4 -12 -6 -19.5t-2 -11.5t-1 -11t-1 -9h-143l-97 96h-12zM453 621h112q2 8 7.5 26.5t17.5 75.5t34.5 169t61.5 308h2l-4 2h92q-53 -242 -80.5 -382t-38.5 -199h119q4 23 7 38 t8 29q6 23 13 57.5t17 87t23.5 122t32.5 163.5l16 82v2h90q-51 -242 -78.5 -382t-40.5 -199h121q4 23 7 38t5 29l107 516q6 41 -4 58.5t-37 17.5h-106.5h-57h-21.5h-4q-2 -2 -4 -2q-2 -2 -3 -2t-3 -2q-2 -4 -4 -5t-4 -3q-4 -2 -8 -6q-2 -2 -2 -5l-6 9l-6 8l-9 8h-192 q-27 0 -40 -16.5t-22 -59.5l-14 -67h-2l-84 -426q-4 -16 -9 -38t-9 -52z" />
<glyph unicode="&#x25fc;" horiz-adv-x="1300" d="M0 0v1300h1300v-1300h-1300z" />
</font>
</defs>
</svg>
